<svg xmlns="http://www.w3.org/2000/svg" xmlns:xlink="http://www.w3.org/1999/xlink" contentStyleType="text/css" height="865px" preserveAspectRatio="none" style="width:995px;height:865px;background:#FFFFFF;" version="1.1" viewBox="0 0 995 865" width="995px" zoomAndPan="magnify"><title>Company Representative - Approve Internship Application</title><defs/><g><text fill="#000000" font-family="sans-serif" font-size="14" font-weight="bold" lengthAdjust="spacing" textLength="388.9512" x="299.4424" y="29.5332">Company Representative - Approve Internship Application</text><rect fill="#FFFFFF" height="462.9219" style="stroke:#181818;stroke-width:1.0;" width="10" x="258.3613" y="215.5313"/><rect fill="#FFFFFF" height="385.8672" style="stroke:#181818;stroke-width:1.0;" width="10" x="628.4399" y="245.8828"/><rect fill="#FFFFFF" height="30.3516" style="stroke:#181818;stroke-width:1.0;" width="10" x="846.6743" y="276.2344"/><rect fill="#FFFFFF" height="30.3516" style="stroke:#181818;stroke-width:1.0;" width="10" x="846.6743" y="571.0469"/><rect fill="#FFFFFF" height="30.3516" style="stroke:#181818;stroke-width:1.0;" width="10" x="938.3774" y="336.9375"/><line style="stroke:#181818;stroke-width:0.5;stroke-dasharray:5.0,5.0;" x1="55" x2="55" y1="138.8281" y2="765.5078"/><line style="stroke:#181818;stroke-width:0.5;stroke-dasharray:5.0,5.0;" x1="262.5615" x2="262.5615" y1="138.8281" y2="765.5078"/><line style="stroke:#181818;stroke-width:0.5;stroke-dasharray:5.0,5.0;" x1="632.6401" x2="632.6401" y1="138.8281" y2="765.5078"/><line style="stroke:#181818;stroke-width:0.5;stroke-dasharray:5.0,5.0;" x1="851.4297" x2="851.4297" y1="138.8281" y2="765.5078"/><line style="stroke:#181818;stroke-width:0.5;stroke-dasharray:5.0,5.0;" x1="942.9189" x2="942.9189" y1="138.8281" y2="765.5078"/><text fill="#000000" font-family="sans-serif" font-size="14" lengthAdjust="spacing" textLength="59.917" x="22.124" y="118.1426">Company</text><text fill="#000000" font-family="sans-serif" font-size="14" lengthAdjust="spacing" textLength="94.165" x="5" y="135.752">Representative</text><ellipse cx="55.0825" cy="52.1094" fill="#E2E2F0" rx="8" ry="8" style="stroke:#181818;stroke-width:0.5;"/><path d="M55.0825,60.1094 L55.0825,87.1094 M42.0825,68.1094 L68.0825,68.1094 M55.0825,87.1094 L42.0825,102.1094 M55.0825,87.1094 L68.0825,102.1094 " fill="none" style="stroke:#181818;stroke-width:0.5;"/><text fill="#000000" font-family="sans-serif" font-size="14" lengthAdjust="spacing" textLength="59.917" x="22.124" y="779.041">Company</text><text fill="#000000" font-family="sans-serif" font-size="14" lengthAdjust="spacing" textLength="94.165" x="5" y="796.6504">Representative</text><ellipse cx="55.0825" cy="808.2266" fill="#E2E2F0" rx="8" ry="8" style="stroke:#181818;stroke-width:0.5;"/><path d="M55.0825,816.2266 L55.0825,843.2266 M42.0825,824.2266 L68.0825,824.2266 M55.0825,843.2266 L42.0825,858.2266 M55.0825,843.2266 L68.0825,858.2266 " fill="none" style="stroke:#181818;stroke-width:0.5;"/><rect fill="#E2E2F0" height="49.2188" rx="2.5" ry="2.5" style="stroke:#181818;stroke-width:0.5;" width="99.5996" x="213.5615" y="88.6094"/><text fill="#000000" font-family="sans-serif" font-size="14" lengthAdjust="spacing" textLength="85.5996" x="220.5615" y="110.1426">CompanyRep</text><text fill="#000000" font-family="sans-serif" font-size="14" lengthAdjust="spacing" textLength="60.6895" x="233.0166" y="127.752">Controller</text><rect fill="#E2E2F0" height="49.2188" rx="2.5" ry="2.5" style="stroke:#181818;stroke-width:0.5;" width="99.5996" x="213.5615" y="764.5078"/><text fill="#000000" font-family="sans-serif" font-size="14" lengthAdjust="spacing" textLength="85.5996" x="220.5615" y="786.041">CompanyRep</text><text fill="#000000" font-family="sans-serif" font-size="14" lengthAdjust="spacing" textLength="60.6895" x="233.0166" y="803.6504">Controller</text><rect fill="#E2E2F0" height="49.2188" rx="2.5" ry="2.5" style="stroke:#181818;stroke-width:0.5;" width="99.5996" x="583.6401" y="88.6094"/><text fill="#000000" font-family="sans-serif" font-size="14" lengthAdjust="spacing" textLength="85.5996" x="590.6401" y="110.1426">CompanyRep</text><text fill="#000000" font-family="sans-serif" font-size="14" lengthAdjust="spacing" textLength="46.6826" x="610.0986" y="127.752">Service</text><rect fill="#E2E2F0" height="49.2188" rx="2.5" ry="2.5" style="stroke:#181818;stroke-width:0.5;" width="99.5996" x="583.6401" y="764.5078"/><text fill="#000000" font-family="sans-serif" font-size="14" lengthAdjust="spacing" textLength="85.5996" x="590.6401" y="786.041">CompanyRep</text><text fill="#000000" font-family="sans-serif" font-size="14" lengthAdjust="spacing" textLength="46.6826" x="610.0986" y="803.6504">Service</text><rect fill="#E2E2F0" height="49.2188" rx="2.5" ry="2.5" style="stroke:#181818;stroke-width:0.5;" width="82.4893" x="810.4297" y="88.6094"/><text fill="#000000" font-family="sans-serif" font-size="14" lengthAdjust="spacing" textLength="68.4893" x="817.4297" y="110.1426">Application</text><text fill="#000000" font-family="sans-serif" font-size="14" lengthAdjust="spacing" textLength="66.917" x="818.2158" y="127.752">Repository</text><rect fill="#E2E2F0" height="49.2188" rx="2.5" ry="2.5" style="stroke:#181818;stroke-width:0.5;" width="82.4893" x="810.4297" y="764.5078"/><text fill="#000000" font-family="sans-serif" font-size="14" lengthAdjust="spacing" textLength="68.4893" x="817.4297" y="786.041">Application</text><text fill="#000000" font-family="sans-serif" font-size="14" lengthAdjust="spacing" textLength="66.917" x="818.2158" y="803.6504">Repository</text><rect fill="#E2E2F0" height="49.2188" rx="2.5" ry="2.5" style="stroke:#181818;stroke-width:0.5;" width="80.917" x="902.9189" y="88.6094"/><text fill="#000000" font-family="sans-serif" font-size="14" lengthAdjust="spacing" textLength="61.4824" x="912.6362" y="110.1426">Internship</text><text fill="#000000" font-family="sans-serif" font-size="14" lengthAdjust="spacing" textLength="66.917" x="909.9189" y="127.752">Repository</text><rect fill="#E2E2F0" height="49.2188" rx="2.5" ry="2.5" style="stroke:#181818;stroke-width:0.5;" width="80.917" x="902.9189" y="764.5078"/><text fill="#000000" font-family="sans-serif" font-size="14" lengthAdjust="spacing" textLength="61.4824" x="912.6362" y="786.041">Internship</text><text fill="#000000" font-family="sans-serif" font-size="14" lengthAdjust="spacing" textLength="66.917" x="909.9189" y="803.6504">Repository</text><rect fill="#FFFFFF" height="462.9219" style="stroke:#181818;stroke-width:1.0;" width="10" x="258.3613" y="215.5313"/><rect fill="#FFFFFF" height="385.8672" style="stroke:#181818;stroke-width:1.0;" width="10" x="628.4399" y="245.8828"/><rect fill="#FFFFFF" height="30.3516" style="stroke:#181818;stroke-width:1.0;" width="10" x="846.6743" y="276.2344"/><rect fill="#FFFFFF" height="30.3516" style="stroke:#181818;stroke-width:1.0;" width="10" x="846.6743" y="571.0469"/><rect fill="#FFFFFF" height="30.3516" style="stroke:#181818;stroke-width:1.0;" width="10" x="938.3774" y="336.9375"/><rect fill="#EEEEEE" height="3" style="stroke:#EEEEEE;stroke-width:1.0;" width="988.8359" x="0" y="170.0039"/><line style="stroke:#000000;stroke-width:1.0;" x1="0" x2="988.8359" y1="170.0039" y2="170.0039"/><line style="stroke:#000000;stroke-width:1.0;" x1="0" x2="988.8359" y1="173.0039" y2="173.0039"/><rect fill="#EEEEEE" height="24.3516" style="stroke:#000000;stroke-width:2.0;" width="144.73" x="422.053" y="158.8281"/><text fill="#000000" font-family="sans-serif" font-size="13" font-weight="bold" lengthAdjust="spacing" textLength="127.1182" x="428.053" y="176.3232">Approve Application</text><polygon fill="#181818" points="246.3613,211.5313,256.3613,215.5313,246.3613,219.5313,250.3613,215.5313" style="stroke:#181818;stroke-width:1.0;"/><line style="stroke:#181818;stroke-width:1.0;" x1="55.0825" x2="252.3613" y1="215.5313" y2="215.5313"/><text fill="#000000" font-family="sans-serif" font-size="13" lengthAdjust="spacing" textLength="184.2788" x="64.5825" y="210.6748">POST /applications/{id}/approve</text><polygon fill="#181818" points="616.4399,241.8828,626.4399,245.8828,616.4399,249.8828,620.4399,245.8828" style="stroke:#181818;stroke-width:1.0;"/><line style="stroke:#181818;stroke-width:1.0;" x1="268.3613" x2="622.4399" y1="245.8828" y2="245.8828"/><text fill="#000000" font-family="sans-serif" font-size="13" lengthAdjust="spacing" textLength="341.0786" x="277.8613" y="241.0264">handleApplicationDecision(repId, applicationId, APPROVE)</text><polygon fill="#181818" points="834.6743,272.2344,844.6743,276.2344,834.6743,280.2344,838.6743,276.2344" style="stroke:#181818;stroke-width:1.0;"/><line style="stroke:#181818;stroke-width:1.0;" x1="638.4399" x2="840.6743" y1="276.2344" y2="276.2344"/><text fill="#000000" font-family="sans-serif" font-size="13" lengthAdjust="spacing" textLength="128.6289" x="678.2427" y="271.3779">findById(applicationId)</text><polygon fill="#181818" points="649.4399,302.5859,639.4399,306.5859,649.4399,310.5859,645.4399,306.5859" style="stroke:#181818;stroke-width:1.0;"/><line style="stroke:#181818;stroke-width:1.0;stroke-dasharray:2.0,2.0;" x1="643.4399" x2="850.6743" y1="306.5859" y2="306.5859"/><text fill="#000000" font-family="sans-serif" font-size="13" lengthAdjust="spacing" textLength="63.5972" x="713.2585" y="301.7295">Application</text><polygon fill="#181818" points="926.3774,332.9375,936.3774,336.9375,926.3774,340.9375,930.3774,336.9375" style="stroke:#181818;stroke-width:1.0;"/><line style="stroke:#181818;stroke-width:1.0;" x1="638.4399" x2="932.3774" y1="336.9375" y2="336.9375"/><text fill="#000000" font-family="sans-serif" font-size="13" lengthAdjust="spacing" textLength="122.8398" x="726.9888" y="332.0811">findById(internshipId)</text><polygon fill="#181818" points="649.4399,363.2891,639.4399,367.2891,649.4399,371.2891,645.4399,367.2891" style="stroke:#181818;stroke-width:1.0;"/><line style="stroke:#181818;stroke-width:1.0;stroke-dasharray:2.0,2.0;" x1="643.4399" x2="942.3774" y1="367.2891" y2="367.2891"/><text fill="#000000" font-family="sans-serif" font-size="13" lengthAdjust="spacing" textLength="124.2935" x="728.762" y="362.4326">InternshipOpportunity</text><line style="stroke:#181818;stroke-width:1.0;" x1="638.4399" x2="680.4399" y1="397.6406" y2="397.6406"/><line style="stroke:#181818;stroke-width:1.0;" x1="680.4399" x2="680.4399" y1="397.6406" y2="410.6406"/><line style="stroke:#181818;stroke-width:1.0;" x1="639.4399" x2="680.4399" y1="410.6406" y2="410.6406"/><polygon fill="#181818" points="649.4399,406.6406,639.4399,410.6406,649.4399,414.6406,645.4399,410.6406" style="stroke:#181818;stroke-width:1.0;"/><text fill="#000000" font-family="sans-serif" font-size="13" lengthAdjust="spacing" textLength="184.2344" x="645.4399" y="392.7842">verifyOwnership(rep, internship)</text><line style="stroke:#181818;stroke-width:1.0;" x1="638.4399" x2="680.4399" y1="440.9922" y2="440.9922"/><line style="stroke:#181818;stroke-width:1.0;" x1="680.4399" x2="680.4399" y1="440.9922" y2="453.9922"/><line style="stroke:#181818;stroke-width:1.0;" x1="639.4399" x2="680.4399" y1="453.9922" y2="453.9922"/><polygon fill="#181818" points="649.4399,449.9922,639.4399,453.9922,649.4399,457.9922,645.4399,453.9922" style="stroke:#181818;stroke-width:1.0;"/><text fill="#000000" font-family="sans-serif" font-size="13" lengthAdjust="spacing" textLength="149.5508" x="645.4399" y="436.1357">validateStatus(PENDING)</text><line style="stroke:#181818;stroke-width:1.0;" x1="638.4399" x2="680.4399" y1="484.3438" y2="484.3438"/><line style="stroke:#181818;stroke-width:1.0;" x1="680.4399" x2="680.4399" y1="484.3438" y2="497.3438"/><line style="stroke:#181818;stroke-width:1.0;" x1="639.4399" x2="680.4399" y1="497.3438" y2="497.3438"/><polygon fill="#181818" points="649.4399,493.3438,639.4399,497.3438,649.4399,501.3438,645.4399,497.3438" style="stroke:#181818;stroke-width:1.0;"/><text fill="#000000" font-family="sans-serif" font-size="13" lengthAdjust="spacing" textLength="126.4326" x="645.4399" y="479.4873">checkSlotAvailability()</text><line style="stroke:#181818;stroke-width:1.0;" x1="638.4399" x2="680.4399" y1="527.6953" y2="527.6953"/><line style="stroke:#181818;stroke-width:1.0;" x1="680.4399" x2="680.4399" y1="527.6953" y2="540.6953"/><line style="stroke:#181818;stroke-width:1.0;" x1="639.4399" x2="680.4399" y1="540.6953" y2="540.6953"/><polygon fill="#181818" points="649.4399,536.6953,639.4399,540.6953,649.4399,544.6953,645.4399,540.6953" style="stroke:#181818;stroke-width:1.0;"/><text fill="#000000" font-family="sans-serif" font-size="13" lengthAdjust="spacing" textLength="150.2617" x="645.4399" y="522.8389">setStatus(SUCCESSFUL)</text><polygon fill="#181818" points="834.6743,567.0469,844.6743,571.0469,834.6743,575.0469,838.6743,571.0469" style="stroke:#181818;stroke-width:1.0;"/><line style="stroke:#181818;stroke-width:1.0;" x1="638.4399" x2="840.6743" y1="571.0469" y2="571.0469"/><text fill="#000000" font-family="sans-serif" font-size="13" lengthAdjust="spacing" textLength="98.2744" x="693.4199" y="566.1904">save(application)</text><polygon fill="#181818" points="649.4399,597.3984,639.4399,601.3984,649.4399,605.3984,645.4399,601.3984" style="stroke:#181818;stroke-width:1.0;"/><line style="stroke:#181818;stroke-width:1.0;stroke-dasharray:2.0,2.0;" x1="643.4399" x2="850.6743" y1="601.3984" y2="601.3984"/><text fill="#000000" font-family="sans-serif" font-size="13" lengthAdjust="spacing" textLength="46.96" x="721.5771" y="596.542">success</text><polygon fill="#181818" points="279.3613,627.75,269.3613,631.75,279.3613,635.75,275.3613,631.75" style="stroke:#181818;stroke-width:1.0;"/><line style="stroke:#181818;stroke-width:1.0;stroke-dasharray:2.0,2.0;" x1="273.3613" x2="632.4399" y1="631.75" y2="631.75"/><text fill="#000000" font-family="sans-serif" font-size="13" lengthAdjust="spacing" textLength="122.1353" x="389.833" y="626.8936">ApplicationResponse</text><polygon fill="#181818" points="66.0825,674.4531,56.0825,678.4531,66.0825,682.4531,62.0825,678.4531" style="stroke:#181818;stroke-width:1.0;"/><line style="stroke:#181818;stroke-width:1.0;stroke-dasharray:2.0,2.0;" x1="60.0825" x2="262.3613" y1="678.4531" y2="678.4531"/><text fill="#000000" font-family="sans-serif" font-size="13" lengthAdjust="spacing" textLength="44.0845" x="137.1797" y="657.2451">200 OK</text><text fill="#000000" font-family="sans-serif" font-size="13" lengthAdjust="spacing" textLength="131.5171" x="93.4634" y="673.5967">(Application Approved)</text><path d="M60,691.4531 L60,750.4531 L264,750.4531 L264,701.4531 L254,691.4531 L60,691.4531 " fill="#FEFFDD" style="stroke:#181818;stroke-width:0.5;"/><path d="M254,691.4531 L254,701.4531 L264,701.4531 L254,691.4531 " fill="#FEFFDD" style="stroke:#181818;stroke-width:0.5;"/><text fill="#000000" font-family="sans-serif" font-size="13" lengthAdjust="spacing" textLength="149.6079" x="66" y="709.9482">Student can view updated</text><text fill="#000000" font-family="sans-serif" font-size="13" lengthAdjust="spacing" textLength="183.5742" x="66" y="726.2998">application status on dashboard</text><text fill="#000000" font-family="sans-serif" font-size="13" lengthAdjust="spacing" textLength="127.1943" x="66" y="742.6514">and accept placement</text><!--SRC=[ZLNBRjim4BppAnOvD3QG88yMFGXm0ST90wDDB5XDJhamujec8fCiITaLYlvxbueiKOsArXTHrEpCx8FqCMIpo_FpIxYrkZJm4KvXhZnQvJRIG5hm7BUeFDnnnTUlowno7hVi66PwQxYgO8d6egDFtCiT4iFK6AjfHSz2vhIh5OmokQMtbKGnPinBN-2_2I8h4HSZxSnNXLHhvbwaCjpoBJZyNgBAyGwT8wlJGguLv1WO8XJf6AtS0NM5XTvFhTLxyBR427YbVwHS2DA0Y_EWc7BhPIx9i7UCvrvRE6eIU5Bz38w0Er8op7GnBPYWJsgcbRUwAD3MsBnz_Nj8XdOdyrTkzxhkWwCArOQqasIogWEuCM6d7z1LzmrUAb_ZsMGosCt9X35A44u_HTuJI1VPDpZZ7T2T_PJYLzW95A5iSiSznWcpRXtecjGIs70b2en4hp6NZfuZ4fwB4uXamkiqJPUBnvjn9tAeKZqkPFOYeKdpLc8_6TRWWdfJfmHMKechQYv6FPM8_53HvWcdiVUONU2Rc8EXomGUqSfL1OkzGXiw4PjfcX2PaMt7UbuEtMgUVIzTbnV6QEjB9NqLksfx7KctqRlQNsilrFu4EXlZDfVtb0ilf0YCxs2smVm5fZik2_uiYw0uoDv4P7HkIZTAR-wlv_Utuq5i7YYpGlkOTTGP-90CJUeWbKFVA6OFizbDbdr- -3fcWtFW-0xZ6VZV2N1bdjCLCzZzLkUFqnFPNZRNL1pVZdDyO8Y2Mf80tU6m-FAaHl4fRUf1enBHn4TFQTgmShtne5VrZGNqotmfmaMVSmKxYNieJMYIg3z6jG1N5n5e9RZRF6jk6umIm2b_uy4S_a4OqcRGOxy1]--></g></svg>