<svg xmlns="http://www.w3.org/2000/svg" xmlns:xlink="http://www.w3.org/1999/xlink" contentStyleType="text/css" height="3342.1875px" preserveAspectRatio="none" style="width:2187px;height:3342px;background:#FFFFFF;" version="1.1" viewBox="0 0 2187 3342" width="2187.5px" zoomAndPan="magnify"><title>Internship Placement Management System</title><defs/><g><text fill="#000000" font-family="sans-serif" font-size="21.875" font-weight="bold" lengthAdjust="spacing" textLength="444.9234" x="860.7323" y="38.3331">Internship Placement Management System</text><text fill="#000000" font-family="sans-serif" font-size="21.875" font-weight="bold" lengthAdjust="spacing" textLength="403.6301" x="881.3789" y="65.8478">Model Layer - Detailed Class Hierarchy</text><!--class User--><g id="elem_User"><rect codeLine="17" fill="#F1F1F1" height="350.1465" id="User" rx="3.9063" ry="3.9063" style="stroke:#181818;stroke-width:0.78125;" width="609.0973" x="732.0313" y="98.7793"/><ellipse cx="1006.8466" cy="123.7793" fill="#A9DCDF" rx="17.1875" ry="17.1875" style="stroke:#181818;stroke-width:1.5625;"/><path d="M1010.2646,126.5381 L1003.7949,126.5381 L1003.1357,128.1494 L1003.7949,128.1494 Q1004.747,128.1494 1005.162,128.5156 Q1005.5771,128.8818 1005.5771,129.4922 Q1005.5771,130.0781 1005.162,130.4443 Q1004.747,130.8105 1003.7949,130.8105 L1000.206,130.8105 Q999.2538,130.8105 998.8632,130.4443 Q998.4482,130.0781 998.4482,129.4678 Q998.4482,128.8818 998.8876,128.5156 Q999.3027,128.125 1000.2792,128.1494 L1004.454,117.749 L1002.7206,117.749 Q1001.7685,117.749 1001.3535,117.3828 Q1000.9384,117.0166 1000.9384,116.4063 Q1000.9384,115.8203 1001.3535,115.4541 Q1001.7685,115.0879 1002.7206,115.0879 L1008.4579,115.0879 L1013.7558,128.1494 Q1014.6835,128.1494 1014.9765,128.3691 Q1015.5869,128.7842 1015.5869,129.4922 Q1015.5869,130.0781 1015.1718,130.4443 Q1014.7812,130.8105 1013.829,130.8105 L1010.2402,130.8105 Q1009.288,130.8105 1008.873,130.4443 Q1008.4579,130.0781 1008.4579,129.4678 Q1008.4579,128.8818 1008.873,128.5156 Q1009.288,128.1494 1010.2402,128.1494 L1010.8994,128.1494 L1010.2646,126.5381 Z M1009.1415,123.877 L1007.0175,118.6035 L1004.8691,123.877 L1009.1415,123.877 Z " fill="#000000"/><text fill="#000000" font-family="sans-serif" font-size="21.875" font-style="italic" lengthAdjust="spacing" textLength="46.1853" x="1038.8779" y="132.7301">User</text><line style="stroke:#181818;stroke-width:0.78125;" x1="733.5938" x2="1339.566" y1="148.7793" y2="148.7793"/><text fill="#000000" font-family="sans-serif" font-size="21.875" lengthAdjust="spacing" textLength="137.381" x="741.4063" y="177.7374">-userId: String</text><text fill="#000000" font-family="sans-serif" font-size="21.875" lengthAdjust="spacing" textLength="170.2042" x="741.4063" y="205.2521">-password: String</text><text fill="#000000" font-family="sans-serif" font-size="21.875" lengthAdjust="spacing" textLength="131.3034" x="741.4063" y="232.7667">-name: String</text><text fill="#000000" font-family="sans-serif" font-size="21.875" lengthAdjust="spacing" textLength="128.8574" x="741.4063" y="260.2814">-email: String</text><text fill="#000000" font-family="sans-serif" font-size="21.875" lengthAdjust="spacing" textLength="147.0901" x="741.4063" y="287.796">-role: UserRole</text><text fill="#000000" font-family="sans-serif" font-size="21.875" lengthAdjust="spacing" textLength="209.137" x="741.4063" y="315.3107">-isFirstLogin: boolean</text><text fill="#000000" font-family="sans-serif" font-size="21.875" lengthAdjust="spacing" textLength="300.322" x="741.4063" y="342.8253">-lastLoginDate: LocalDateTime</text><line style="stroke:#181818;stroke-width:0.78125;" x1="733.5938" x2="1339.566" y1="353.8818" y2="353.8818"/><text fill="#000000" font-family="sans-serif" font-size="21.875" lengthAdjust="spacing" textLength="399.4644" x="741.4063" y="382.84">+authenticate(password: String): boolean</text><text fill="#000000" font-family="sans-serif" font-size="21.875" lengthAdjust="spacing" textLength="590.3473" x="741.4063" y="410.3546">+changePassword(oldPwd: String, newPwd: String): boolean</text><text fill="#000000" font-family="sans-serif" font-size="21.875" font-style="italic" lengthAdjust="spacing" textLength="235.2631" x="741.4063" y="437.8693">+getDisplayInfo(): String</text></g><!--class Student--><g id="elem_Student"><rect codeLine="30" fill="#F1F1F1" height="487.7197" id="Student" rx="3.9063" ry="3.9063" style="stroke:#181818;stroke-width:0.78125;" width="516.7053" x="10.9375" y="1264.4043"/><ellipse cx="224.9451" cy="1289.4043" fill="#ADD1B2" rx="17.1875" ry="17.1875" style="stroke:#181818;stroke-width:1.5625;"/><path d="M229.2664,1282.959 Q229.5105,1282.6172 229.8035,1282.4463 Q230.0964,1282.2754 230.4382,1282.2754 Q231.0242,1282.2754 231.3904,1282.6904 Q231.7566,1283.0811 231.7566,1284.0332 L231.7566,1286.3037 Q231.7566,1287.2559 231.3904,1287.6709 Q231.0242,1288.0859 230.4382,1288.0859 Q229.9011,1288.0859 229.5837,1287.7686 Q229.2664,1287.4756 229.0955,1286.6699 Q229.0222,1286.1084 228.7292,1285.8154 Q228.2166,1285.2295 227.2644,1284.8877 Q226.3123,1284.5459 225.3357,1284.5459 Q224.1394,1284.5459 223.1384,1285.0586 Q222.1619,1285.5713 221.3806,1286.7432 Q220.6238,1287.915 220.6238,1289.5264 L220.6238,1291.2354 Q220.6238,1293.1641 222.0154,1294.458 Q223.407,1295.7275 225.8972,1295.7275 Q227.3621,1295.7275 228.3875,1295.3369 Q228.9978,1295.0928 229.657,1294.4092 Q230.072,1293.9941 230.2917,1293.8721 Q230.5359,1293.75 230.8533,1293.75 Q231.366,1293.75 231.7566,1294.165 Q232.1716,1294.5557 232.1716,1295.0928 Q232.1716,1295.6299 231.6345,1296.2646 Q230.8533,1297.168 229.6082,1297.6807 Q227.9236,1298.3887 225.8972,1298.3887 Q223.5291,1298.3887 221.6492,1297.4121 Q220.1111,1296.6309 219.0369,1294.9707 Q217.9626,1293.2861 217.9626,1291.2842 L217.9626,1289.4775 Q217.9626,1287.4023 218.9148,1285.6201 Q219.8914,1283.8135 221.6003,1282.8613 Q223.3093,1281.8848 225.238,1281.8848 Q226.3855,1281.8848 227.3865,1282.1533 Q228.4119,1282.3975 229.2664,1282.959 Z " fill="#000000"/><text fill="#000000" font-family="sans-serif" font-size="21.875" lengthAdjust="spacing" textLength="75.4089" x="256.9763" y="1298.3551">Student</text><line style="stroke:#181818;stroke-width:0.78125;" x1="12.5" x2="526.0803" y1="1314.4043" y2="1314.4043"/><text fill="#000000" font-family="sans-serif" font-size="21.875" lengthAdjust="spacing" textLength="164.1266" x="20.3125" y="1343.3624">-yearOfStudy: int</text><text fill="#000000" font-family="sans-serif" font-size="21.875" lengthAdjust="spacing" textLength="131.282" x="20.3125" y="1370.8771">-major: String</text><text fill="#000000" font-family="sans-serif" font-size="21.875" lengthAdjust="spacing" textLength="269.9448" x="20.3125" y="1398.3917">-applicationIds: List&lt;String&gt;</text><text fill="#000000" font-family="sans-serif" font-size="21.875" lengthAdjust="spacing" textLength="286.9598" x="20.3125" y="1425.9064">-acceptedPlacementId: String</text><text fill="#000000" font-family="sans-serif" font-size="21.875" lengthAdjust="spacing" text-decoration="underline" textLength="303.9429" x="20.3125" y="1453.421">+MAX_APPLICATIONS: int = 3</text><line style="stroke:#181818;stroke-width:0.78125;" x1="12.5" x2="526.0803" y1="1464.4775" y2="1464.4775"/><text fill="#000000" font-family="sans-serif" font-size="21.875" lengthAdjust="spacing" textLength="497.9553" x="20.3125" y="1493.4357">+canApplyForLevel(level: InternshipLevel): boolean</text><text fill="#000000" font-family="sans-serif" font-size="21.875" lengthAdjust="spacing" textLength="311.9003" x="20.3125" y="1520.9503">+hasMaxApplications(): boolean</text><text fill="#000000" font-family="sans-serif" font-size="21.875" lengthAdjust="spacing" textLength="347.1802" x="20.3125" y="1548.465">+hasAcceptedPlacement(): boolean</text><text fill="#000000" font-family="sans-serif" font-size="21.875" lengthAdjust="spacing" textLength="327.7191" x="20.3125" y="1575.9796">+canSubmitApplication(): boolean</text><text fill="#000000" font-family="sans-serif" font-size="21.875" lengthAdjust="spacing" textLength="452.9984" x="20.3125" y="1603.4943">+addApplication(applicationId: String): boolean</text><text fill="#000000" font-family="sans-serif" font-size="21.875" lengthAdjust="spacing" textLength="489.4424" x="20.3125" y="1631.0089">+removeApplication(applicationId: String): boolean</text><text fill="#000000" font-family="sans-serif" font-size="21.875" lengthAdjust="spacing" textLength="435.8978" x="20.3125" y="1658.5236">+acceptPlacement(placementId: String): void</text><text fill="#000000" font-family="sans-serif" font-size="21.875" lengthAdjust="spacing" textLength="258.3984" x="20.3125" y="1686.0382">+getApplicationCount(): int</text><text fill="#000000" font-family="sans-serif" font-size="21.875" lengthAdjust="spacing" textLength="192.7307" x="20.3125" y="1713.5529">+isJunior(): boolean</text><text fill="#000000" font-family="sans-serif" font-size="21.875" lengthAdjust="spacing" textLength="196.3837" x="20.3125" y="1741.0675">+isSenior(): boolean</text></g><!--class CompanyRepresentative--><g id="elem_CompanyRepresentative"><rect codeLine="48" fill="#F1F1F1" height="460.2051" id="CompanyRepresentative" rx="3.9063" ry="3.9063" style="stroke:#181818;stroke-width:0.78125;" width="487.5031" x="792.9688" y="544.0918"/><ellipse cx="909.7031" cy="569.0918" fill="#ADD1B2" rx="17.1875" ry="17.1875" style="stroke:#181818;stroke-width:1.5625;"/><path d="M914.0244,562.6465 Q914.2685,562.3047 914.5615,562.1338 Q914.8544,561.9629 915.1962,561.9629 Q915.7822,561.9629 916.1484,562.3779 Q916.5146,562.7686 916.5146,563.7207 L916.5146,565.9912 Q916.5146,566.9434 916.1484,567.3584 Q915.7822,567.7734 915.1962,567.7734 Q914.6591,567.7734 914.3417,567.4561 Q914.0244,567.1631 913.8535,566.3574 Q913.7802,565.7959 913.4872,565.5029 Q912.9745,564.917 912.0224,564.5752 Q911.0703,564.2334 910.0937,564.2334 Q908.8974,564.2334 907.8964,564.7461 Q906.9199,565.2588 906.1386,566.4307 Q905.3818,567.6025 905.3818,569.2139 L905.3818,570.9229 Q905.3818,572.8516 906.7734,574.1455 Q908.165,575.415 910.6552,575.415 Q912.1201,575.415 913.1454,575.0244 Q913.7558,574.7803 914.415,574.0967 Q914.83,573.6816 915.0497,573.5596 Q915.2939,573.4375 915.6113,573.4375 Q916.124,573.4375 916.5146,573.8525 Q916.9296,574.2432 916.9296,574.7803 Q916.9296,575.3174 916.3925,575.9521 Q915.6113,576.8555 914.3661,577.3682 Q912.6816,578.0762 910.6552,578.0762 Q908.287,578.0762 906.4072,577.0996 Q904.8691,576.3184 903.7949,574.6582 Q902.7206,572.9736 902.7206,570.9717 L902.7206,569.165 Q902.7206,567.0898 903.6728,565.3076 Q904.6494,563.501 906.3583,562.5488 Q908.0673,561.5723 909.996,561.5723 Q911.1435,561.5723 912.1445,561.8408 Q913.1699,562.085 914.0244,562.6465 Z " fill="#000000"/><text fill="#000000" font-family="sans-serif" font-size="21.875" lengthAdjust="spacing" textLength="240.7532" x="941.7343" y="578.0426">CompanyRepresentative</text><line style="stroke:#181818;stroke-width:0.78125;" x1="794.5313" x2="1278.9093" y1="594.0918" y2="594.0918"/><text fill="#000000" font-family="sans-serif" font-size="21.875" lengthAdjust="spacing" textLength="223.6954" x="802.3438" y="623.0499">-companyName: String</text><text fill="#000000" font-family="sans-serif" font-size="21.875" lengthAdjust="spacing" textLength="187.2406" x="802.3438" y="650.5646">-department: String</text><text fill="#000000" font-family="sans-serif" font-size="21.875" lengthAdjust="spacing" textLength="151.9821" x="802.3438" y="678.0792">-position: String</text><text fill="#000000" font-family="sans-serif" font-size="21.875" lengthAdjust="spacing" textLength="217.6712" x="802.3438" y="705.5939">-isAuthorized: boolean</text><text fill="#000000" font-family="sans-serif" font-size="21.875" lengthAdjust="spacing" textLength="260.2036" x="802.3438" y="733.1085">-internshipIds: List&lt;String&gt;</text><text fill="#000000" font-family="sans-serif" font-size="21.875" lengthAdjust="spacing" text-decoration="underline" textLength="291.7664" x="802.3438" y="760.6232">+MAX_INTERNSHIPS: int = 5</text><line style="stroke:#181818;stroke-width:0.78125;" x1="794.5313" x2="1278.9093" y1="771.6797" y2="771.6797"/><text fill="#000000" font-family="sans-serif" font-size="21.875" lengthAdjust="spacing" textLength="300.9521" x="802.3438" y="800.6378">+hasMaxInternships(): boolean</text><text fill="#000000" font-family="sans-serif" font-size="21.875" lengthAdjust="spacing" textLength="314.3463" x="802.3438" y="828.1525">+canCreateInternship(): boolean</text><text fill="#000000" font-family="sans-serif" font-size="21.875" lengthAdjust="spacing" textLength="206.1462" x="802.3438" y="855.6671">+canLogin(): boolean</text><text fill="#000000" font-family="sans-serif" font-size="21.875" lengthAdjust="spacing" textLength="432.309" x="802.3438" y="883.1818">+addInternship(internshipId: String): boolean</text><text fill="#000000" font-family="sans-serif" font-size="21.875" lengthAdjust="spacing" textLength="468.7531" x="802.3438" y="910.6964">+removeInternship(internshipId: String): boolean</text><text fill="#000000" font-family="sans-serif" font-size="21.875" lengthAdjust="spacing" textLength="169.6167" x="802.3438" y="938.2111">+authorize(): void</text><text fill="#000000" font-family="sans-serif" font-size="21.875" lengthAdjust="spacing" textLength="272.9675" x="802.3438" y="965.7257">+revokeAuthorization(): void</text><text fill="#000000" font-family="sans-serif" font-size="21.875" lengthAdjust="spacing" textLength="247.4503" x="802.3438" y="993.2404">+getInternshipCount(): int</text></g><!--class CareerCenterStaff--><g id="elem_CareerCenterStaff"><rect codeLine="65" fill="#F1F1F1" height="240.0879" id="CareerCenterStaff" rx="3.9063" ry="3.9063" style="stroke:#181818;stroke-width:0.78125;" width="421.8567" x="1755.4688" y="654.248"/><ellipse cx="1871.0014" cy="679.248" fill="#ADD1B2" rx="17.1875" ry="17.1875" style="stroke:#181818;stroke-width:1.5625;"/><path d="M1875.3227,672.8027 Q1875.5669,672.4609 1875.8598,672.29 Q1876.1528,672.1191 1876.4946,672.1191 Q1877.0805,672.1191 1877.4467,672.5342 Q1877.813,672.9248 1877.813,673.877 L1877.813,676.1475 Q1877.813,677.0996 1877.4467,677.5146 Q1877.0805,677.9297 1876.4946,677.9297 Q1875.9575,677.9297 1875.6401,677.6123 Q1875.3227,677.3193 1875.1518,676.5137 Q1875.0786,675.9521 1874.7856,675.6592 Q1874.2729,675.0732 1873.3208,674.7314 Q1872.3686,674.3896 1871.3921,674.3896 Q1870.1958,674.3896 1869.1948,674.9023 Q1868.2182,675.415 1867.437,676.5869 Q1866.6801,677.7588 1866.6801,679.3701 L1866.6801,681.0791 Q1866.6801,683.0078 1868.0717,684.3018 Q1869.4633,685.5713 1871.9536,685.5713 Q1873.4184,685.5713 1874.4438,685.1807 Q1875.0542,684.9365 1875.7133,684.2529 Q1876.1284,683.8379 1876.3481,683.7158 Q1876.5923,683.5938 1876.9096,683.5938 Q1877.4223,683.5938 1877.813,684.0088 Q1878.228,684.3994 1878.228,684.9365 Q1878.228,685.4736 1877.6909,686.1084 Q1876.9096,687.0117 1875.6645,687.5244 Q1873.9799,688.2324 1871.9536,688.2324 Q1869.5854,688.2324 1867.7055,687.2559 Q1866.1674,686.4746 1865.0932,684.8145 Q1864.019,683.1299 1864.019,681.1279 L1864.019,679.3213 Q1864.019,677.2461 1864.9712,675.4639 Q1865.9477,673.6572 1867.6567,672.7051 Q1869.3657,671.7285 1871.2944,671.7285 Q1872.4419,671.7285 1873.4428,671.9971 Q1874.4682,672.2412 1875.3227,672.8027 Z " fill="#000000"/><text fill="#000000" font-family="sans-serif" font-size="21.875" lengthAdjust="spacing" textLength="177.5101" x="1903.0327" y="688.1989">CareerCenterStaff</text><line style="stroke:#181818;stroke-width:0.78125;" x1="1757.0313" x2="2175.7629" y1="704.248" y2="704.248"/><text fill="#000000" font-family="sans-serif" font-size="21.875" lengthAdjust="spacing" textLength="187.2406" x="1764.8438" y="733.2062">-department: String</text><line style="stroke:#181818;stroke-width:0.78125;" x1="1757.0313" x2="2175.7629" y1="744.2627" y2="744.2627"/><text fill="#000000" font-family="sans-serif" font-size="21.875" lengthAdjust="spacing" textLength="309.4543" x="1764.8438" y="773.2208">+hasAdminPrivileges(): boolean</text><text fill="#000000" font-family="sans-serif" font-size="21.875" lengthAdjust="spacing" textLength="403.1067" x="1764.8438" y="800.7355">+canAuthorizeRepresentatives(): boolean</text><text fill="#000000" font-family="sans-serif" font-size="21.875" lengthAdjust="spacing" textLength="341.1026" x="1764.8438" y="828.2501">+canApproveInternships(): boolean</text><text fill="#000000" font-family="sans-serif" font-size="21.875" lengthAdjust="spacing" textLength="350.769" x="1764.8438" y="855.7648">+canProcessWithdrawals(): boolean</text><text fill="#000000" font-family="sans-serif" font-size="21.875" lengthAdjust="spacing" textLength="320.4239" x="1764.8438" y="883.2794">+canGenerateReports(): boolean</text></g><!--class InternshipOpportunity--><g id="elem_InternshipOpportunity"><rect codeLine="75" fill="#F1F1F1" height="762.8662" id="InternshipOpportunity" rx="3.9063" ry="3.9063" style="stroke:#181818;stroke-width:0.78125;" width="469.2276" x="949.2188" y="1126.9043"/><ellipse cx="1072.6181" cy="1151.9043" fill="#ADD1B2" rx="17.1875" ry="17.1875" style="stroke:#181818;stroke-width:1.5625;"/><path d="M1076.9394,1145.459 Q1077.1835,1145.1172 1077.4765,1144.9463 Q1077.7695,1144.7754 1078.1113,1144.7754 Q1078.6972,1144.7754 1079.0634,1145.1904 Q1079.4296,1145.5811 1079.4296,1146.5332 L1079.4296,1148.8037 Q1079.4296,1149.7559 1079.0634,1150.1709 Q1078.6972,1150.5859 1078.1113,1150.5859 Q1077.5742,1150.5859 1077.2568,1150.2686 Q1076.9394,1149.9756 1076.7685,1149.1699 Q1076.6953,1148.6084 1076.4023,1148.3154 Q1075.8896,1147.7295 1074.9374,1147.3877 Q1073.9853,1147.0459 1073.0087,1147.0459 Q1071.8124,1147.0459 1070.8115,1147.5586 Q1069.8349,1148.0713 1069.0536,1149.2432 Q1068.2968,1150.415 1068.2968,1152.0264 L1068.2968,1153.7354 Q1068.2968,1155.6641 1069.6884,1156.958 Q1071.08,1158.2275 1073.5703,1158.2275 Q1075.0351,1158.2275 1076.0605,1157.8369 Q1076.6708,1157.5928 1077.33,1156.9092 Q1077.7451,1156.4941 1077.9648,1156.3721 Q1078.2089,1156.25 1078.5263,1156.25 Q1079.039,1156.25 1079.4296,1156.665 Q1079.8447,1157.0557 1079.8447,1157.5928 Q1079.8447,1158.1299 1079.3076,1158.7646 Q1078.5263,1159.668 1077.2812,1160.1807 Q1075.5966,1160.8887 1073.5703,1160.8887 Q1071.2021,1160.8887 1069.3222,1159.9121 Q1067.7841,1159.1309 1066.7099,1157.4707 Q1065.6357,1155.7861 1065.6357,1153.7842 L1065.6357,1151.9775 Q1065.6357,1149.9023 1066.5878,1148.1201 Q1067.5644,1146.3135 1069.2734,1145.3613 Q1070.9824,1144.3848 1072.9111,1144.3848 Q1074.0585,1144.3848 1075.0595,1144.6533 Q1076.0849,1144.8975 1076.9394,1145.459 Z " fill="#000000"/><text fill="#000000" font-family="sans-serif" font-size="21.875" lengthAdjust="spacing" textLength="209.1476" x="1104.6494" y="1160.8551">InternshipOpportunity</text><line style="stroke:#181818;stroke-width:0.78125;" x1="950.7813" x2="1416.8839" y1="1176.9043" y2="1176.9043"/><text fill="#000000" font-family="sans-serif" font-size="21.875" lengthAdjust="spacing" textLength="203.0594" x="958.5938" y="1205.8624">-opportunityId: String</text><text fill="#000000" font-family="sans-serif" font-size="21.875" lengthAdjust="spacing" textLength="110.6247" x="958.5938" y="1233.3771">-title: String</text><text fill="#000000" font-family="sans-serif" font-size="21.875" lengthAdjust="spacing" textLength="182.37" x="958.5938" y="1260.8917">-description: String</text><text fill="#000000" font-family="sans-serif" font-size="21.875" lengthAdjust="spacing" textLength="212.7899" x="958.5938" y="1288.4064">-level: InternshipLevel</text><text fill="#000000" font-family="sans-serif" font-size="21.875" lengthAdjust="spacing" textLength="220.0424" x="958.5938" y="1315.921">-preferredMajor: String</text><text fill="#000000" font-family="sans-serif" font-size="21.875" lengthAdjust="spacing" textLength="242.0029" x="958.5938" y="1343.4357">-openingDate: LocalDate</text><text fill="#000000" font-family="sans-serif" font-size="21.875" lengthAdjust="spacing" textLength="232.2403" x="958.5938" y="1370.9503">-closingDate: LocalDate</text><text fill="#000000" font-family="sans-serif" font-size="21.875" lengthAdjust="spacing" textLength="235.8826" x="958.5938" y="1398.465">-status: InternshipStatus</text><text fill="#000000" font-family="sans-serif" font-size="21.875" lengthAdjust="spacing" textLength="223.6954" x="958.5938" y="1425.9796">-companyName: String</text><text fill="#000000" font-family="sans-serif" font-size="21.875" lengthAdjust="spacing" textLength="233.4473" x="958.5938" y="1453.4943">-representativeId: String</text><text fill="#000000" font-family="sans-serif" font-size="21.875" lengthAdjust="spacing" textLength="132.5211" x="958.5938" y="1481.0089">-totalSlots: int</text><text fill="#000000" font-family="sans-serif" font-size="21.875" lengthAdjust="spacing" textLength="136.1633" x="958.5938" y="1508.5236">-filledSlots: int</text><text fill="#000000" font-family="sans-serif" font-size="21.875" lengthAdjust="spacing" textLength="158.0811" x="958.5938" y="1536.0382">-visible: boolean</text><text fill="#000000" font-family="sans-serif" font-size="21.875" lengthAdjust="spacing" text-decoration="underline" textLength="228.5873" x="958.5938" y="1563.5529">+MAX_SLOTS: int = 10</text><line style="stroke:#181818;stroke-width:0.78125;" x1="950.7813" x2="1416.8839" y1="1574.6094" y2="1574.6094"/><text fill="#000000" font-family="sans-serif" font-size="21.875" lengthAdjust="spacing" textLength="347.1695" x="958.5938" y="1603.5675">+isAcceptingApplications(): boolean</text><text fill="#000000" font-family="sans-serif" font-size="21.875" lengthAdjust="spacing" textLength="309.465" x="958.5938" y="1631.0822">+isVisibleToStudents(): boolean</text><text fill="#000000" font-family="sans-serif" font-size="21.875" lengthAdjust="spacing" textLength="290.0253" x="958.5938" y="1658.5968">+hasAvailableSlots(): boolean</text><text fill="#000000" font-family="sans-serif" font-size="21.875" lengthAdjust="spacing" textLength="292.4179" x="958.5938" y="1686.1115">+confirmPlacement(): boolean</text><text fill="#000000" font-family="sans-serif" font-size="21.875" lengthAdjust="spacing" textLength="292.45" x="958.5938" y="1713.6261">+releasePlacement(): boolean</text><text fill="#000000" font-family="sans-serif" font-size="21.875" lengthAdjust="spacing" textLength="230.4138" x="958.5938" y="1741.1407">+getAvailableSlots(): int</text><text fill="#000000" font-family="sans-serif" font-size="21.875" lengthAdjust="spacing" textLength="241.4047" x="958.5938" y="1768.6554">+canBeEdited(): boolean</text><text fill="#000000" font-family="sans-serif" font-size="21.875" lengthAdjust="spacing" textLength="450.4776" x="958.5938" y="1796.17">+matchesMajor(studentMajor: String): boolean</text><text fill="#000000" font-family="sans-serif" font-size="21.875" lengthAdjust="spacing" textLength="158.6792" x="958.5938" y="1823.6847">+approve(): void</text><text fill="#000000" font-family="sans-serif" font-size="21.875" lengthAdjust="spacing" textLength="133.1192" x="958.5938" y="1851.1993">+reject(): void</text><text fill="#000000" font-family="sans-serif" font-size="21.875" lengthAdjust="spacing" textLength="218.2373" x="958.5938" y="1878.714">+toggleVisibility(): void</text></g><!--class Application--><g id="elem_Application"><rect codeLine="103" fill="#F1F1F1" height="625.293" id="Application" rx="3.9063" ry="3.9063" style="stroke:#181818;stroke-width:0.78125;" width="446.7438" x="396.0938" y="2011.2793"/><ellipse cx="559.3178" cy="2036.2793" fill="#ADD1B2" rx="17.1875" ry="17.1875" style="stroke:#181818;stroke-width:1.5625;"/><path d="M563.6391,2029.834 Q563.8832,2029.4922 564.1762,2029.3213 Q564.4691,2029.1504 564.8109,2029.1504 Q565.3969,2029.1504 565.7631,2029.5654 Q566.1293,2029.9561 566.1293,2030.9082 L566.1293,2033.1787 Q566.1293,2034.1309 565.7631,2034.5459 Q565.3969,2034.9609 564.8109,2034.9609 Q564.2738,2034.9609 563.9565,2034.6436 Q563.6391,2034.3506 563.4682,2033.5449 Q563.3949,2032.9834 563.102,2032.6904 Q562.5893,2032.1045 561.6371,2031.7627 Q560.685,2031.4209 559.7084,2031.4209 Q558.5121,2031.4209 557.5111,2031.9336 Q556.5346,2032.4463 555.7533,2033.6182 Q554.9965,2034.79 554.9965,2036.4014 L554.9965,2038.1104 Q554.9965,2040.0391 556.3881,2041.333 Q557.7797,2042.6025 560.2699,2042.6025 Q561.7348,2042.6025 562.7602,2042.2119 Q563.3705,2041.9678 564.0297,2041.2842 Q564.4447,2040.8691 564.6645,2040.7471 Q564.9086,2040.625 565.226,2040.625 Q565.7387,2040.625 566.1293,2041.04 Q566.5443,2041.4307 566.5443,2041.9678 Q566.5443,2042.5049 566.0072,2043.1396 Q565.226,2044.043 563.9809,2044.5557 Q562.2963,2045.2637 560.2699,2045.2637 Q557.9018,2045.2637 556.0219,2044.2871 Q554.4838,2043.5059 553.4096,2041.8457 Q552.3354,2040.1611 552.3354,2038.1592 L552.3354,2036.3525 Q552.3354,2034.2773 553.2875,2032.4951 Q554.2641,2030.6885 555.9731,2029.7363 Q557.682,2028.7598 559.6107,2028.7598 Q560.7582,2028.7598 561.7592,2029.0283 Q562.7846,2029.2725 563.6391,2029.834 Z " fill="#000000"/><text fill="#000000" font-family="sans-serif" font-size="21.875" lengthAdjust="spacing" textLength="107.0145" x="591.349" y="2045.2301">Application</text><line style="stroke:#181818;stroke-width:0.78125;" x1="397.6563" x2="841.275" y1="2061.2793" y2="2061.2793"/><text fill="#000000" font-family="sans-serif" font-size="21.875" lengthAdjust="spacing" textLength="199.4171" x="405.4688" y="2090.2374">-applicationId: String</text><text fill="#000000" font-family="sans-serif" font-size="21.875" lengthAdjust="spacing" textLength="166.5833" x="405.4688" y="2117.7521">-studentId: String</text><text fill="#000000" font-family="sans-serif" font-size="21.875" lengthAdjust="spacing" textLength="203.0594" x="405.4688" y="2145.2667">-opportunityId: String</text><text fill="#000000" font-family="sans-serif" font-size="21.875" lengthAdjust="spacing" textLength="246.8307" x="405.4688" y="2172.7814">-status: ApplicationStatus</text><text fill="#000000" font-family="sans-serif" font-size="21.875" lengthAdjust="spacing" textLength="322.1756" x="405.4688" y="2200.296">-submissionDate: LocalDateTime</text><text fill="#000000" font-family="sans-serif" font-size="21.875" lengthAdjust="spacing" textLength="341.658" x="405.4688" y="2227.8107">-statusUpdateDate: LocalDateTime</text><text fill="#000000" font-family="sans-serif" font-size="21.875" lengthAdjust="spacing" textLength="289.4272" x="405.4688" y="2255.3253">-placementAccepted: boolean</text><text fill="#000000" font-family="sans-serif" font-size="21.875" lengthAdjust="spacing" textLength="427.9938" x="405.4688" y="2282.84">-placementAcceptanceDate: LocalDateTime</text><text fill="#000000" font-family="sans-serif" font-size="21.875" lengthAdjust="spacing" textLength="320.9579" x="405.4688" y="2310.3546">-representativeComments: String</text><line style="stroke:#181818;stroke-width:0.78125;" x1="397.6563" x2="841.275" y1="2321.4111" y2="2321.4111"/><text fill="#000000" font-family="sans-serif" font-size="21.875" lengthAdjust="spacing" textLength="213.4308" x="405.4688" y="2350.3693">+isPending(): boolean</text><text fill="#000000" font-family="sans-serif" font-size="21.875" lengthAdjust="spacing" textLength="238.9267" x="405.4688" y="2377.8839">+isSuccessful(): boolean</text><text fill="#000000" font-family="sans-serif" font-size="21.875" lengthAdjust="spacing" textLength="263.237" x="405.4688" y="2405.3986">+isUnsuccessful(): boolean</text><text fill="#000000" font-family="sans-serif" font-size="21.875" lengthAdjust="spacing" textLength="236.4807" x="405.4688" y="2432.9132">+isWithdrawn(): boolean</text><text fill="#000000" font-family="sans-serif" font-size="21.875" lengthAdjust="spacing" textLength="322.8485" x="405.4688" y="2460.4279">+canAcceptPlacement(): boolean</text><text fill="#000000" font-family="sans-serif" font-size="21.875" lengthAdjust="spacing" textLength="328.8727" x="405.4688" y="2487.9425">+approve(comments: String): void</text><text fill="#000000" font-family="sans-serif" font-size="21.875" lengthAdjust="spacing" textLength="269.3039" x="405.4688" y="2515.4572">+reject(reason: String): void</text><text fill="#000000" font-family="sans-serif" font-size="21.875" lengthAdjust="spacing" textLength="302.1271" x="405.4688" y="2542.9718">+withdraw(reason: String): void</text><text fill="#000000" font-family="sans-serif" font-size="21.875" lengthAdjust="spacing" textLength="285.1547" x="405.4688" y="2570.4865">+acceptPlacement(): boolean</text><text fill="#000000" font-family="sans-serif" font-size="21.875" lengthAdjust="spacing" textLength="291.2643" x="405.4688" y="2598.0011">+canChangeStatus(): boolean</text><text fill="#000000" font-family="sans-serif" font-size="21.875" lengthAdjust="spacing" textLength="260.791" x="405.4688" y="2625.5157">+getStatusDisplay(): String</text></g><!--class WithdrawalRequest--><g id="elem_WithdrawalRequest"><rect codeLine="126" fill="#F1F1F1" height="542.749" id="WithdrawalRequest" rx="3.9063" ry="3.9063" style="stroke:#181818;stroke-width:0.78125;" width="405.397" x="112.5" y="2758.1543"/><ellipse cx="213.7253" cy="2783.1543" fill="#ADD1B2" rx="17.1875" ry="17.1875" style="stroke:#181818;stroke-width:1.5625;"/><path d="M218.0466,2776.709 Q218.2907,2776.3672 218.5837,2776.1963 Q218.8766,2776.0254 219.2184,2776.0254 Q219.8044,2776.0254 220.1706,2776.4404 Q220.5368,2776.8311 220.5368,2777.7832 L220.5368,2780.0537 Q220.5368,2781.0059 220.1706,2781.4209 Q219.8044,2781.8359 219.2184,2781.8359 Q218.6813,2781.8359 218.364,2781.5186 Q218.0466,2781.2256 217.8757,2780.4199 Q217.8024,2779.8584 217.5095,2779.5654 Q216.9968,2778.9795 216.0446,2778.6377 Q215.0925,2778.2959 214.1159,2778.2959 Q212.9196,2778.2959 211.9186,2778.8086 Q210.9421,2779.3213 210.1608,2780.4932 Q209.404,2781.665 209.404,2783.2764 L209.404,2784.9854 Q209.404,2786.9141 210.7956,2788.208 Q212.1872,2789.4775 214.6774,2789.4775 Q216.1423,2789.4775 217.1677,2789.0869 Q217.778,2788.8428 218.4372,2788.1592 Q218.8522,2787.7441 219.072,2787.6221 Q219.3161,2787.5 219.6335,2787.5 Q220.1462,2787.5 220.5368,2787.915 Q220.9518,2788.3057 220.9518,2788.8428 Q220.9518,2789.3799 220.4147,2790.0146 Q219.6335,2790.918 218.3884,2791.4307 Q216.7038,2792.1387 214.6774,2792.1387 Q212.3093,2792.1387 210.4294,2791.1621 Q208.8913,2790.3809 207.8171,2788.7207 Q206.7429,2787.0361 206.7429,2785.0342 L206.7429,2783.2275 Q206.7429,2781.1523 207.695,2779.3701 Q208.6716,2777.5635 210.3806,2776.6113 Q212.0895,2775.6348 214.0182,2775.6348 Q215.1657,2775.6348 216.1667,2775.9033 Q217.1921,2776.1475 218.0466,2776.709 Z " fill="#000000"/><text fill="#000000" font-family="sans-serif" font-size="21.875" lengthAdjust="spacing" textLength="189.6652" x="245.7565" y="2792.1051">WithdrawalRequest</text><line style="stroke:#181818;stroke-width:0.78125;" x1="114.0625" x2="516.3345" y1="2808.1543" y2="2808.1543"/><text fill="#000000" font-family="sans-serif" font-size="21.875" lengthAdjust="spacing" textLength="167.7902" x="121.875" y="2837.1124">-requestId: String</text><text fill="#000000" font-family="sans-serif" font-size="21.875" lengthAdjust="spacing" textLength="199.4171" x="121.875" y="2864.6271">-applicationId: String</text><text fill="#000000" font-family="sans-serif" font-size="21.875" lengthAdjust="spacing" textLength="166.5833" x="121.875" y="2892.1417">-studentId: String</text><text fill="#000000" font-family="sans-serif" font-size="21.875" lengthAdjust="spacing" textLength="189.6759" x="121.875" y="2919.6564">-internshipId: String</text><text fill="#000000" font-family="sans-serif" font-size="21.875" lengthAdjust="spacing" textLength="143.4692" x="121.875" y="2947.171">-reason: String</text><text fill="#000000" font-family="sans-serif" font-size="21.875" lengthAdjust="spacing" textLength="285.7208" x="121.875" y="2974.6857">-requestDate: LocalDateTime</text><text fill="#000000" font-family="sans-serif" font-size="21.875" lengthAdjust="spacing" textLength="226.152" x="121.875" y="3002.2003">-status: ApprovalStatus</text><text fill="#000000" font-family="sans-serif" font-size="21.875" lengthAdjust="spacing" textLength="313.6841" x="121.875" y="3029.715">-processedDate: LocalDateTime</text><text fill="#000000" font-family="sans-serif" font-size="21.875" lengthAdjust="spacing" textLength="203.038" x="121.875" y="3057.2296">-processedBy: String</text><text fill="#000000" font-family="sans-serif" font-size="21.875" lengthAdjust="spacing" textLength="223.674" x="121.875" y="3084.7443">-staffComments: String</text><text fill="#000000" font-family="sans-serif" font-size="21.875" lengthAdjust="spacing" textLength="386.647" x="121.875" y="3112.2589">-isAfterPlacementConfirmation: boolean</text><line style="stroke:#181818;stroke-width:0.78125;" x1="114.0625" x2="516.3345" y1="3123.3154" y2="3123.3154"/><text fill="#000000" font-family="sans-serif" font-size="21.875" lengthAdjust="spacing" textLength="213.4308" x="121.875" y="3152.2736">+isPending(): boolean</text><text fill="#000000" font-family="sans-serif" font-size="21.875" lengthAdjust="spacing" textLength="226.7929" x="121.875" y="3179.7882">+isApproved(): boolean</text><text fill="#000000" font-family="sans-serif" font-size="21.875" lengthAdjust="spacing" textLength="219.487" x="121.875" y="3207.3029">+isRejected(): boolean</text><text fill="#000000" font-family="sans-serif" font-size="21.875" lengthAdjust="spacing" textLength="275.4349" x="121.875" y="3234.8175">+canBeReviewed(): boolean</text><text fill="#000000" font-family="sans-serif" font-size="21.875" lengthAdjust="spacing" textLength="328.8727" x="121.875" y="3262.3322">+approve(comments: String): void</text><text fill="#000000" font-family="sans-serif" font-size="21.875" lengthAdjust="spacing" textLength="303.3127" x="121.875" y="3289.8468">+reject(comments: String): void</text></g><g id="elem_GMN17"><path d="M582.8125,1436.2793 L582.8125,1501.9043 L528.1719,1508.1543 L582.8125,1514.4043 L582.8125,1579.6509 A0,0 0 0 0 582.8125,1579.6509 L893.3846,1579.6509 A0,0 0 0 0 893.3846,1579.6509 L893.3846,1451.9043 L877.7596,1436.2793 L582.8125,1436.2793 A0,0 0 0 0 582.8125,1436.2793 " fill="#FEFFDD" style="stroke:#181818;stroke-width:0.78125;"/><path d="M877.7596,1436.2793 L877.7596,1451.9043 L893.3846,1451.9043 L877.7596,1436.2793 " fill="#FEFFDD" style="stroke:#181818;stroke-width:0.78125;"/><text fill="#000000" font-family="sans-serif" font-size="20.3125" lengthAdjust="spacing" textLength="145.639" x="592.1875" y="1465.1779">Business Rules:</text><text fill="#000000" font-family="sans-serif" font-size="20.3125" lengthAdjust="spacing" textLength="180.6404" x="592.1875" y="1490.7272">- Max 3 applications</text><text fill="#000000" font-family="sans-serif" font-size="20.3125" lengthAdjust="spacing" textLength="205.4657" x="592.1875" y="1516.2766">- Year 1-2: BASIC only</text><text fill="#000000" font-family="sans-serif" font-size="20.3125" lengthAdjust="spacing" textLength="181.7513" x="592.1875" y="1541.8259">- Year 3-4: All levels</text><text fill="#000000" font-family="sans-serif" font-size="20.3125" lengthAdjust="spacing" textLength="277.7596" x="592.1875" y="1567.3752">- Cannot apply after placement</text></g><g id="elem_GMN20"><path d="M1335.1563,715.9668 L1335.1563,768.3105 L1280.6406,774.5605 L1335.1563,780.8105 L1335.1563,833.7891 A0,0 0 0 0 1335.1563,833.7891 L1701.0025,833.7891 A0,0 0 0 0 1701.0025,833.7891 L1701.0025,731.5918 L1685.3775,715.9668 L1335.1563,715.9668 A0,0 0 0 0 1335.1563,715.9668 " fill="#FEFFDD" style="stroke:#181818;stroke-width:0.78125;"/><path d="M1685.3775,715.9668 L1685.3775,731.5918 L1701.0025,731.5918 L1685.3775,715.9668 " fill="#FEFFDD" style="stroke:#181818;stroke-width:0.78125;"/><text fill="#000000" font-family="sans-serif" font-size="20.3125" lengthAdjust="spacing" textLength="145.639" x="1344.5313" y="744.8654">Business Rules:</text><text fill="#000000" font-family="sans-serif" font-size="20.3125" lengthAdjust="spacing" textLength="171.595" x="1344.5313" y="770.4147">- Max 5 internships</text><text fill="#000000" font-family="sans-serif" font-size="20.3125" lengthAdjust="spacing" textLength="185.1631" x="1344.5313" y="795.9641">- Must be authorized</text><text fill="#000000" font-family="sans-serif" font-size="20.3125" lengthAdjust="spacing" textLength="333.0338" x="1344.5313" y="821.5134">- Can only edit PENDING internships</text></g><g id="elem_GMN23"><path d="M1473.4375,1449.5605 L1473.4375,1501.9043 L1418.1563,1508.1543 L1473.4375,1514.4043 L1473.4375,1567.3828 A0,0 0 0 0 1473.4375,1567.3828 L1768.1702,1567.3828 A0,0 0 0 0 1768.1702,1567.3828 L1768.1702,1465.1855 L1752.5452,1449.5605 L1473.4375,1449.5605 A0,0 0 0 0 1473.4375,1449.5605 " fill="#FEFFDD" style="stroke:#181818;stroke-width:0.78125;"/><path d="M1752.5452,1449.5605 L1752.5452,1465.1855 L1768.1702,1465.1855 L1752.5452,1449.5605 " fill="#FEFFDD" style="stroke:#181818;stroke-width:0.78125;"/><text fill="#000000" font-family="sans-serif" font-size="20.3125" lengthAdjust="spacing" textLength="145.639" x="1482.8125" y="1478.4592">Business Rules:</text><text fill="#000000" font-family="sans-serif" font-size="20.3125" lengthAdjust="spacing" textLength="126.4275" x="1482.8125" y="1504.0085">- Max 10 slots</text><text fill="#000000" font-family="sans-serif" font-size="20.3125" lengthAdjust="spacing" textLength="246.1304" x="1482.8125" y="1529.5578">- Must be approved by staff</text><text fill="#000000" font-family="sans-serif" font-size="20.3125" lengthAdjust="spacing" textLength="261.9202" x="1482.8125" y="1555.1071">- Auto FILLED when slots full</text></g><!--reverse link User to Student--><g id="link_User_Student"><path codeLine="147" d="M825.4685,469.9604 C796.9841,500.0697 788.6094,511.7168 764.8438,544.0918 C598.3125,770.9512 457.125,1061.748 368.6094,1264.0605 " fill="none" id="User-backto-Student" style="stroke:#181818;stroke-width:1.5625;"/><polygon fill="none" points="844.7969,449.5293,818.6581,463.5176,832.2788,476.4032,844.7969,449.5293" style="stroke:#181818;stroke-width:1.5625;"/></g><!--reverse link User to CompanyRepresentative--><g id="link_User_CompanyRepresentative"><path codeLine="148" d="M1036.7188,477.5293 C1036.7188,508.0762 1036.7188,512.1543 1036.7188,543.9355 " fill="none" id="User-backto-CompanyRepresentative" style="stroke:#181818;stroke-width:1.5625;"/><polygon fill="none" points="1036.7188,449.4043,1027.3438,477.5293,1046.0938,477.5293,1036.7188,449.4043" style="stroke:#181818;stroke-width:1.5625;"/></g><!--reverse link User to CareerCenterStaff--><g id="link_User_CareerCenterStaff"><path codeLine="149" d="M1368.3272,374.3496 C1493.1865,418.2871 1609.2188,468.8105 1727.3438,544.0918 C1775.0781,574.5137 1821.4688,615.4043 1860.4844,654.2168 " fill="none" id="User-backto-CareerCenterStaff" style="stroke:#181818;stroke-width:1.5625;"/><polygon fill="none" points="1341.7969,365.0137,1365.2152,383.193,1371.4391,365.5061,1341.7969,365.0137" style="stroke:#181818;stroke-width:1.5625;"/></g><!--link Student to Application--><g id="link_Student_Application"><path codeLine="152" d="M374.0625,1752.3887 C409.0156,1833.5293 444.7593,1916.4975 481.6499,2002.1225 " fill="none" id="Student-to-Application" style="stroke:#181818;stroke-width:1.5625;"/><polygon fill="#181818" points="485.3594,2010.7324,485.5351,1995.3446,482.2681,2003.5575,474.0552,2000.2906,485.3594,2010.7324" style="stroke:#181818;stroke-width:1.5625;"/><text fill="#000000" font-family="sans-serif" font-size="20.3125" lengthAdjust="spacing" textLength="69.9829" x="457.0313" y="1958.9279">submits</text><text fill="#000000" font-family="sans-serif" font-size="20.3125" lengthAdjust="spacing" textLength="11.2968" x="367.9437" y="1785.9183">1</text><text fill="#000000" font-family="sans-serif" font-size="20.3125" lengthAdjust="spacing" textLength="7.9048" x="472.1576" y="1994.1069">*</text></g><!--link CompanyRepresentative to InternshipOpportunity--><g id="link_CompanyRepresentative_InternshipOpportunity"><path codeLine="153" d="M1082.7813,1005.248 C1090.5625,1043.9512 1096.9802,1075.8382 1105.2927,1117.182 " fill="none" id="CompanyRepresentative-to-InternshipOpportunity" style="stroke:#181818;stroke-width:1.5625;"/><polygon fill="#181818" points="1107.1406,1126.373,1110.4961,1111.3545,1105.6007,1118.7138,1098.2413,1113.8184,1107.1406,1126.373" style="stroke:#181818;stroke-width:1.5625;"/><text fill="#000000" font-family="sans-serif" font-size="20.3125" lengthAdjust="spacing" textLength="66.6107" x="1099.2188" y="1074.5529">creates</text><text fill="#000000" font-family="sans-serif" font-size="20.3125" lengthAdjust="spacing" textLength="11.2968" x="1073.8186" y="1038.1446">1</text><text fill="#000000" font-family="sans-serif" font-size="20.3125" lengthAdjust="spacing" textLength="7.9048" x="1096.685" y="1109.5248">*</text></g><!--link InternshipOpportunity to Application--><g id="link_InternshipOpportunity_Application"><path codeLine="154" d="M948.9531,1849.248 C939.5469,1862.8105 930.2344,1876.2324 921.0938,1889.4043 C893.8125,1928.7168 870.448,1962.318 842.0417,2003.1462 " fill="none" id="InternshipOpportunity-to-Application" style="stroke:#181818;stroke-width:1.5625;"/><polygon fill="#181818" points="836.6875,2010.8418,849.8493,2002.8679,841.1494,2004.4288,839.5885,1995.7289,836.6875,2010.8418" style="stroke:#181818;stroke-width:1.5625;"/><text fill="#000000" font-family="sans-serif" font-size="20.3125" lengthAdjust="spacing" textLength="75.6363" x="891.4063" y="1958.9279">receives</text><text fill="#000000" font-family="sans-serif" font-size="20.3125" lengthAdjust="spacing" textLength="11.2968" x="925.6319" y="1862.282">1</text><text fill="#000000" font-family="sans-serif" font-size="20.3125" lengthAdjust="spacing" textLength="7.9048" x="837.2094" y="1994.2205">*</text></g><!--link Student to WithdrawalRequest--><g id="link_Student_WithdrawalRequest"><path codeLine="155" d="M273.5469,1752.0449 C277.7344,1980.2324 285.2031,2331.5293 296.0938,2636.2793 C297.5,2675.5449 298.7978,2707.6481 300.6259,2748.32 " fill="none" id="Student-to-WithdrawalRequest" style="stroke:#181818;stroke-width:1.5625;"/><polygon fill="#181818" points="301.0469,2757.6855,306.6591,2743.3566,300.6961,2749.8809,294.1717,2743.9179,301.0469,2757.6855" style="stroke:#181818;stroke-width:1.5625;"/><text fill="#000000" font-family="sans-serif" font-size="20.3125" lengthAdjust="spacing" textLength="69.9829" x="297.6563" y="2332.3654">submits</text><text fill="#000000" font-family="sans-serif" font-size="20.3125" lengthAdjust="spacing" textLength="11.2968" x="262.5594" y="1785.5579">1</text><text fill="#000000" font-family="sans-serif" font-size="20.3125" lengthAdjust="spacing" textLength="7.9048" x="292.4182" y="2740.8998">*</text></g><!--link Application to WithdrawalRequest--><g id="link_Application_WithdrawalRequest"><path codeLine="156" d="M484.5625,2636.4668 C466.9688,2677.0137 452.7922,2709.6781 435.5422,2749.4594 " fill="none" id="Application-to-WithdrawalRequest" style="stroke:#181818;stroke-width:1.5625;"/><polygon fill="#181818" points="431.8125,2758.0605,443.1411,2747.6452,434.9205,2750.8929,431.6729,2742.6723,431.8125,2758.0605" style="stroke:#181818;stroke-width:1.5625;"/><text fill="#000000" font-family="sans-serif" font-size="20.3125" lengthAdjust="spacing" textLength="88.0638" x="460.1563" y="2705.8029">may have</text><text fill="#000000" font-family="sans-serif" font-size="20.3125" lengthAdjust="spacing" textLength="11.2968" x="468.1487" y="2670.2606">1</text><text fill="#000000" font-family="sans-serif" font-size="20.3125" lengthAdjust="spacing" textLength="33.8806" x="403.5649" y="2741.2918">0..1</text></g><text fill="#888888" font-family="sans-serif" font-size="15.625" lengthAdjust="spacing" textLength="234.5276" x="965.9302" y="3326.4984">SC2002 Group 6 - Page %page%</text><!--SRC=[dLZhRzis4F-kl-8Ge6YspeNJ5p2ZA-0uQUl1SGmxtGCOC33IsMOhaHf9sTMw_kyxYjQRTjRbWs7VW_VJyNSFvJ6i9i-6msVmJiaiXLSmWAamg8JUyXGMCGinGM7WXWcsSLzNkJQO18_XHaOOmupbgE0A3UCnHZ29cTPmnTb6iIGWgoKcSeUW-Ty8CK-uqM0awAtSmpgBOuWEfZfaCKB2FiEBuO-lOCyZi-qAjyWtMnC4XXiI_pUWVuWcpa4NwNkEYgbmcmThAUcyVZuMT1uyIkdpaNsUbSbZBZQ1_iH5oWWvXFQWiJ6AtsS6fw4KA_kmmuQ9th98xiaDrYpMsD14AOUBbqDxyWTDuRSL7dQlZMAXSUSxxPS0w6y06VsOHYC2eomM9qp9R2zLLonOWXqH9fI2Zap9cCnib2LzEmYvVikLDZEvuM84zv8qJ1nqXCefhfWXpvcakx9VxtZYt9y0oyoMReA793xlmlkkVU0J2BTCR71nC3kNSRJOLzO_WC1zutVF-qkPhw-mGNF5THgpV2hMyloxwac_1e5BvifaaQL8cSyScRfTMsa-0YxCGPomZr9ryiJIDBOFnAMOHfgUcslpsbcyAKt245E3KSNApbLzqORymw-4-cRysv_ZnM8sdOplfhVpLH4TVeBdPKwO65F0_ArKCznXV1xRpr63-uMubuqjqpViyxZ6gizzDkCkqhuL8LXbzrItZSFwLYoAclfMaevUcIfQmxVxkVpMcDD-dibd9tbqS212DA9CPEOUjBpe9yJpdpF1fUe_6DShx6eg6araaZAHBp5Lg2a-7K-jhYHLwBJpVlr5ICLlBE9k2KlDBSIEcEinLP9Kr5QYRXdoYWb-EdR8DftVNI_dg_VJHSMrbotErCpINZ9C558rrrPUew8lU5dIS6mYVu0Zt-h5odITjucWS2S_OPdCYijjgjJ1MaofRvqfH3L1QxOoRBskRlp8lRfIYn8k5ehlQFXiq9_RwfRRZ3fYdAQgbHg_sKB94BN-bPjjfDYUne_Nx1qA6Zp6HfRAw0xT7yCjTN85IJ5AYpIWFgIZ1d2RMbyg99DNAP6rh3UmYZ7UAmqTAfvwYi3V-Sh2KRX6fJ2wyRHicL89YqrdJfLL6bFD7LFQsibqC-Yga3nOuQfrWVqdbuR5grWQtHmtQnxJOj8JxxZczpPHpKlhbFLgTdjN5VJ5i6fUhi5JuDEZWEjVN90xUHYDH-R5ZXO7HdO5I0-Hf5XpbPmO9mhfXyOJ5hPPzyBKhPguUedN4QUfrVTDc0ctg0iId6lt92r6z3k5gw9Ud_Y8eUa8ZTniOYmInMFYSwMkEaCZoLK1U4TQHQy2OKz-gcXAIZPYjJYfxR3MciJ7zhBoZ0zfHEBZLjLOBRU4xkZf630HdZYjNH4qEQsZxlH9hXSe8lhj7SHPQ3iPlJNuj1-4Fgal6w3mDzFEId6K9s47k9StD29rtR_Q9li3ZfD6x24uTX0NwxAxUsyLETLX4_PjmVLCME9V6Ufw7rRkTuzy_uVCle5TXMcce1tx8VOM5K1NGdsqIV_KZJkCJl2wDBdC-xMrNdkfMUnWQtgGwauchjKnDwcwR3j1uyFSZdowPS4VdwveUqlSSTpxrDz4psD6nQ2V2Xhql2XcUdUFtSImsqLGl86-_cSmA5-V6XBl9jpKTtSc6sgijGovQvVjKENxsTd56Gm6R-3i-xDMSnsvDcTqu5_1ctx-_MG4OR78wi2lFnvPOOXsAVE2x9TK3RLvJEKpVFhqmk-Mi9n6BcMHCZMN5gcWJr3sNo0WrzKb05ncjC4Ges6PnQX7WQKhRVBml5clkX3_JY-wS35uDeBByMew0IdYl5Oy7xoWiefZjsivZmaJ5BSuAGTcIw3k-m6n72oge8FDJuVZI5yskeGBUvDH4kwntkIZ4as16P0s05XSpw-cytSjvsEGlDTy0jB54BJTFjfe3hKBzxbh5eMMrdO9RwUpsVKLxBSed6FnxwqQphy0]--></g></svg>