<svg xmlns="http://www.w3.org/2000/svg" xmlns:xlink="http://www.w3.org/1999/xlink" contentStyleType="text/css" height="1554px" preserveAspectRatio="none" style="width:1358px;height:1554px;background:#FFFFFF;" version="1.1" viewBox="0 0 1358 1554" width="1358px" zoomAndPan="magnify"><title>Internship Placement Management System - Student Application Workflow</title><defs/><g><text fill="#000000" font-family="sans-serif" font-size="14" font-weight="bold" lengthAdjust="spacing" textLength="496.2891" x="432.0188" y="29.5332">Internship Placement Management System - Student Application Workflow</text><rect fill="#FFFFFF" height="1121.1641" style="stroke:#181818;stroke-width:1.0;" width="10" x="297.0488" y="153.5703"/><rect fill="#FFFFFF" height="1090.8125" style="stroke:#181818;stroke-width:1.0;" width="10" x="562.353" y="183.9219"/><rect fill="#FFFFFF" height="60.7031" style="stroke:#181818;stroke-width:1.0;" width="10" x="840.5918" y="689.1953"/><rect fill="#FFFFFF" height="60.7031" style="stroke:#181818;stroke-width:1.0;" width="10" x="996.4946" y="374.0313"/><rect fill="#FFFFFF" height="60.7031" style="stroke:#181818;stroke-width:1.0;" width="10" x="1142.2837" y="214.2734"/><rect fill="#FFFFFF" height="60.7031" style="stroke:#181818;stroke-width:1.0;" width="10" x="1142.2837" y="780.25"/><rect fill="none" height="934.4063" style="stroke:#000000;stroke-width:1.5;" width="1341.3267" x="10" y="333.3281"/><rect fill="none" height="658.4063" style="stroke:#000000;stroke-width:1.5;" width="1321.3267" x="20" y="493.0859"/><rect fill="none" height="473.4609" style="stroke:#000000;stroke-width:1.5;" width="1301.3267" x="30" y="561.7891"/><line style="stroke:#181818;stroke-width:0.5;stroke-dasharray:5.0,5.0;" x1="67" x2="67" y1="121.2188" y2="1471.8984"/><line style="stroke:#181818;stroke-width:0.5;stroke-dasharray:5.0,5.0;" x1="301.5732" x2="301.5732" y1="121.2188" y2="1471.8984"/><line style="stroke:#181818;stroke-width:0.5;stroke-dasharray:5.0,5.0;" x1="566.8809" x2="566.8809" y1="121.2188" y2="1471.8984"/><line style="stroke:#181818;stroke-width:0.5;stroke-dasharray:5.0,5.0;" x1="844.8887" x2="844.8887" y1="121.2188" y2="1471.8984"/><line style="stroke:#181818;stroke-width:0.5;stroke-dasharray:5.0,5.0;" x1="1001.2949" x2="1001.2949" y1="121.2188" y2="1471.8984"/><line style="stroke:#181818;stroke-width:0.5;stroke-dasharray:5.0,5.0;" x1="1146.6943" x2="1146.6943" y1="121.2188" y2="1471.8984"/><line style="stroke:#181818;stroke-width:0.5;stroke-dasharray:5.0,5.0;" x1="1276.6167" x2="1276.6167" y1="121.2188" y2="1471.8984"/><text fill="#000000" font-family="sans-serif" font-size="14" lengthAdjust="spacing" textLength="48.2617" x="40" y="118.1426">Student</text><ellipse cx="67.1309" cy="52.1094" fill="#E2E2F0" rx="8" ry="8" style="stroke:#181818;stroke-width:0.5;"/><path d="M67.1309,60.1094 L67.1309,87.1094 M54.1309,68.1094 L80.1309,68.1094 M67.1309,87.1094 L54.1309,102.1094 M67.1309,87.1094 L80.1309,102.1094 " fill="none" style="stroke:#181818;stroke-width:0.5;"/><text fill="#000000" font-family="sans-serif" font-size="14" lengthAdjust="spacing" textLength="48.2617" x="40" y="1485.4316">Student</text><ellipse cx="67.1309" cy="1497.0078" fill="#E2E2F0" rx="8" ry="8" style="stroke:#181818;stroke-width:0.5;"/><path d="M67.1309,1505.0078 L67.1309,1532.0078 M54.1309,1513.0078 L80.1309,1513.0078 M67.1309,1532.0078 L54.1309,1547.0078 M67.1309,1532.0078 L80.1309,1547.0078 " fill="none" style="stroke:#181818;stroke-width:0.5;"/><rect fill="#E2E2F0" height="31.6094" rx="2.5" ry="2.5" style="stroke:#181818;stroke-width:0.5;" width="122.9512" x="240.5732" y="88.6094"/><text fill="#000000" font-family="sans-serif" font-size="14" lengthAdjust="spacing" textLength="108.9512" x="247.5732" y="110.1426">StudentController</text><rect fill="#E2E2F0" height="31.6094" rx="2.5" ry="2.5" style="stroke:#181818;stroke-width:0.5;" width="122.9512" x="240.5732" y="1470.8984"/><text fill="#000000" font-family="sans-serif" font-size="14" lengthAdjust="spacing" textLength="108.9512" x="247.5732" y="1492.4316">StudentController</text><rect fill="#E2E2F0" height="31.6094" rx="2.5" ry="2.5" style="stroke:#181818;stroke-width:0.5;" width="108.9443" x="512.8809" y="88.6094"/><text fill="#000000" font-family="sans-serif" font-size="14" lengthAdjust="spacing" textLength="94.9443" x="519.8809" y="110.1426">StudentService</text><rect fill="#E2E2F0" height="31.6094" rx="2.5" ry="2.5" style="stroke:#181818;stroke-width:0.5;" width="108.9443" x="512.8809" y="1470.8984"/><text fill="#000000" font-family="sans-serif" font-size="14" lengthAdjust="spacing" textLength="94.9443" x="519.8809" y="1492.4316">StudentService</text><rect fill="#E2E2F0" height="31.6094" rx="2.5" ry="2.5" style="stroke:#181818;stroke-width:0.5;" width="149.4063" x="770.8887" y="88.6094"/><text fill="#000000" font-family="sans-serif" font-size="14" lengthAdjust="spacing" textLength="135.4063" x="777.8887" y="110.1426">ApplicationRepository</text><rect fill="#E2E2F0" height="31.6094" rx="2.5" ry="2.5" style="stroke:#181818;stroke-width:0.5;" width="149.4063" x="770.8887" y="1470.8984"/><text fill="#000000" font-family="sans-serif" font-size="14" lengthAdjust="spacing" textLength="135.4063" x="777.8887" y="1492.4316">ApplicationRepository</text><rect fill="#E2E2F0" height="31.6094" rx="2.5" ry="2.5" style="stroke:#181818;stroke-width:0.5;" width="142.3994" x="930.2949" y="88.6094"/><text fill="#000000" font-family="sans-serif" font-size="14" lengthAdjust="spacing" textLength="128.3994" x="937.2949" y="110.1426">InternshipRepository</text><rect fill="#E2E2F0" height="31.6094" rx="2.5" ry="2.5" style="stroke:#181818;stroke-width:0.5;" width="142.3994" x="930.2949" y="1470.8984"/><text fill="#000000" font-family="sans-serif" font-size="14" lengthAdjust="spacing" textLength="128.3994" x="937.2949" y="1492.4316">InternshipRepository</text><rect fill="#E2E2F0" height="31.6094" rx="2.5" ry="2.5" style="stroke:#181818;stroke-width:0.5;" width="129.1787" x="1082.6943" y="88.6094"/><text fill="#000000" font-family="sans-serif" font-size="14" lengthAdjust="spacing" textLength="115.1787" x="1089.6943" y="110.1426">StudentRepository</text><rect fill="#E2E2F0" height="31.6094" rx="2.5" ry="2.5" style="stroke:#181818;stroke-width:0.5;" width="129.1787" x="1082.6943" y="1470.8984"/><text fill="#000000" font-family="sans-serif" font-size="14" lengthAdjust="spacing" textLength="115.1787" x="1089.6943" y="1492.4316">StudentRepository</text><text fill="#000000" font-family="sans-serif" font-size="14" lengthAdjust="spacing" textLength="81.71" x="1233.6167" y="118.1426">CSV Storage</text><path d="M1259.4717,67.6094 C1259.4717,57.6094 1277.4717,57.6094 1277.4717,57.6094 C1277.4717,57.6094 1295.4717,57.6094 1295.4717,67.6094 L1295.4717,93.6094 C1295.4717,103.6094 1277.4717,103.6094 1277.4717,103.6094 C1277.4717,103.6094 1259.4717,103.6094 1259.4717,93.6094 L1259.4717,67.6094 " fill="#E2E2F0" style="stroke:#181818;stroke-width:1.5;"/><path d="M1259.4717,67.6094 C1259.4717,77.6094 1277.4717,77.6094 1277.4717,77.6094 C1277.4717,77.6094 1295.4717,77.6094 1295.4717,67.6094 " fill="none" style="stroke:#181818;stroke-width:1.5;"/><text fill="#000000" font-family="sans-serif" font-size="14" lengthAdjust="spacing" textLength="81.71" x="1233.6167" y="1485.4316">CSV Storage</text><path d="M1259.4717,1498.5078 C1259.4717,1488.5078 1277.4717,1488.5078 1277.4717,1488.5078 C1277.4717,1488.5078 1295.4717,1488.5078 1295.4717,1498.5078 L1295.4717,1524.5078 C1295.4717,1534.5078 1277.4717,1534.5078 1277.4717,1534.5078 C1277.4717,1534.5078 1259.4717,1534.5078 1259.4717,1524.5078 L1259.4717,1498.5078 " fill="#E2E2F0" style="stroke:#181818;stroke-width:1.5;"/><path d="M1259.4717,1498.5078 C1259.4717,1508.5078 1277.4717,1508.5078 1277.4717,1508.5078 C1277.4717,1508.5078 1295.4717,1508.5078 1295.4717,1498.5078 " fill="none" style="stroke:#181818;stroke-width:1.5;"/><rect fill="#FFFFFF" height="1121.1641" style="stroke:#181818;stroke-width:1.0;" width="10" x="297.0488" y="153.5703"/><rect fill="#FFFFFF" height="1090.8125" style="stroke:#181818;stroke-width:1.0;" width="10" x="562.353" y="183.9219"/><rect fill="#FFFFFF" height="60.7031" style="stroke:#181818;stroke-width:1.0;" width="10" x="840.5918" y="689.1953"/><rect fill="#FFFFFF" height="60.7031" style="stroke:#181818;stroke-width:1.0;" width="10" x="996.4946" y="374.0313"/><rect fill="#FFFFFF" height="60.7031" style="stroke:#181818;stroke-width:1.0;" width="10" x="1142.2837" y="214.2734"/><rect fill="#FFFFFF" height="60.7031" style="stroke:#181818;stroke-width:1.0;" width="10" x="1142.2837" y="780.25"/><polygon fill="#181818" points="285.0488,149.5703,295.0488,153.5703,285.0488,157.5703,289.0488,153.5703" style="stroke:#181818;stroke-width:1.0;"/><line style="stroke:#181818;stroke-width:1.0;" x1="67.1309" x2="291.0488" y1="153.5703" y2="153.5703"/><text fill="#000000" font-family="sans-serif" font-size="13" lengthAdjust="spacing" textLength="177.7534" x="74.1309" y="148.7139">submitApplication(internshipId)</text><polygon fill="#181818" points="550.353,179.9219,560.353,183.9219,550.353,187.9219,554.353,183.9219" style="stroke:#181818;stroke-width:1.0;"/><line style="stroke:#181818;stroke-width:1.0;" x1="307.0488" x2="556.353" y1="183.9219" y2="183.9219"/><text fill="#000000" font-family="sans-serif" font-size="13" lengthAdjust="spacing" textLength="236.3042" x="314.0488" y="179.0654">createApplication(studentId, internshipId)</text><polygon fill="#181818" points="1130.2837,210.2734,1140.2837,214.2734,1130.2837,218.2734,1134.2837,214.2734" style="stroke:#181818;stroke-width:1.0;"/><line style="stroke:#181818;stroke-width:1.0;" x1="572.353" x2="1136.2837" y1="214.2734" y2="214.2734"/><text fill="#000000" font-family="sans-serif" font-size="13" lengthAdjust="spacing" textLength="125.0298" x="579.353" y="209.417">getStudent(studentId)</text><polygon fill="#181818" points="1265.4717,240.625,1275.4717,244.625,1265.4717,248.625,1269.4717,244.625" style="stroke:#181818;stroke-width:1.0;"/><line style="stroke:#181818;stroke-width:1.0;" x1="1152.2837" x2="1271.4717" y1="244.625" y2="244.625"/><text fill="#000000" font-family="sans-serif" font-size="13" lengthAdjust="spacing" textLength="101.188" x="1159.2837" y="239.7686">read student data</text><polygon fill="#181818" points="583.353,270.9766,573.353,274.9766,583.353,278.9766,579.353,274.9766" style="stroke:#181818;stroke-width:1.0;"/><line style="stroke:#181818;stroke-width:1.0;stroke-dasharray:2.0,2.0;" x1="577.353" x2="1146.2837" y1="274.9766" y2="274.9766"/><text fill="#000000" font-family="sans-serif" font-size="13" lengthAdjust="spacing" textLength="44.8145" x="589.353" y="270.1201">Student</text><line style="stroke:#181818;stroke-width:1.0;" x1="572.353" x2="614.353" y1="305.3281" y2="305.3281"/><line style="stroke:#181818;stroke-width:1.0;" x1="614.353" x2="614.353" y1="305.3281" y2="318.3281"/><line style="stroke:#181818;stroke-width:1.0;" x1="573.353" x2="614.353" y1="318.3281" y2="318.3281"/><polygon fill="#181818" points="583.353,314.3281,573.353,318.3281,583.353,322.3281,579.353,318.3281" style="stroke:#181818;stroke-width:1.0;"/><text fill="#000000" font-family="sans-serif" font-size="13" lengthAdjust="spacing" textLength="98.2808" x="579.353" y="300.4717">validateStudent()</text><path d="M10,333.3281 L70.1709,333.3281 L70.1709,341.6797 L60.1709,351.6797 L10,351.6797 L10,333.3281 " fill="#EEEEEE" style="stroke:#000000;stroke-width:1.5;"/><rect fill="none" height="934.4063" style="stroke:#000000;stroke-width:1.5;" width="1341.3267" x="10" y="333.3281"/><text fill="#000000" font-family="sans-serif" font-size="13" font-weight="bold" lengthAdjust="spacing" textLength="15.1709" x="25" y="347.8232">alt</text><text fill="#000000" font-family="sans-serif" font-size="11" font-weight="bold" lengthAdjust="spacing" textLength="170.5054" x="85.1709" y="346.7471">[Student can submit application]</text><polygon fill="#181818" points="984.4946,370.0313,994.4946,374.0313,984.4946,378.0313,988.4946,374.0313" style="stroke:#181818;stroke-width:1.0;"/><line style="stroke:#181818;stroke-width:1.0;" x1="572.353" x2="990.4946" y1="374.0313" y2="374.0313"/><text fill="#000000" font-family="sans-serif" font-size="13" lengthAdjust="spacing" textLength="151.0298" x="579.353" y="369.1748">getInternship(internshipId)</text><polygon fill="#181818" points="1265.4717,400.3828,1275.4717,404.3828,1265.4717,408.3828,1269.4717,404.3828" style="stroke:#181818;stroke-width:1.0;"/><line style="stroke:#181818;stroke-width:1.0;" x1="1006.4946" x2="1271.4717" y1="404.3828" y2="404.3828"/><text fill="#000000" font-family="sans-serif" font-size="13" lengthAdjust="spacing" textLength="114.9116" x="1013.4946" y="399.5264">read internship data</text><polygon fill="#181818" points="583.353,430.7344,573.353,434.7344,583.353,438.7344,579.353,434.7344" style="stroke:#181818;stroke-width:1.0;"/><line style="stroke:#181818;stroke-width:1.0;stroke-dasharray:2.0,2.0;" x1="577.353" x2="1000.4946" y1="434.7344" y2="434.7344"/><text fill="#000000" font-family="sans-serif" font-size="13" lengthAdjust="spacing" textLength="124.2935" x="589.353" y="429.8779">InternshipOpportunity</text><line style="stroke:#181818;stroke-width:1.0;" x1="572.353" x2="614.353" y1="465.0859" y2="465.0859"/><line style="stroke:#181818;stroke-width:1.0;" x1="614.353" x2="614.353" y1="465.0859" y2="478.0859"/><line style="stroke:#181818;stroke-width:1.0;" x1="573.353" x2="614.353" y1="478.0859" y2="478.0859"/><polygon fill="#181818" points="583.353,474.0859,573.353,478.0859,583.353,482.0859,579.353,478.0859" style="stroke:#181818;stroke-width:1.0;"/><text fill="#000000" font-family="sans-serif" font-size="13" lengthAdjust="spacing" textLength="161.1226" x="579.353" y="460.2295">checkInternshipAvailability()</text><path d="M20,493.0859 L80.1709,493.0859 L80.1709,501.4375 L70.1709,511.4375 L20,511.4375 L20,493.0859 " fill="#EEEEEE" style="stroke:#000000;stroke-width:1.5;"/><rect fill="none" height="658.4063" style="stroke:#000000;stroke-width:1.5;" width="1321.3267" x="20" y="493.0859"/><text fill="#000000" font-family="sans-serif" font-size="13" font-weight="bold" lengthAdjust="spacing" textLength="15.1709" x="35" y="507.5811">alt</text><text fill="#000000" font-family="sans-serif" font-size="11" font-weight="bold" lengthAdjust="spacing" textLength="194.3638" x="95.1709" y="506.5049">[Internship is accepting applications]</text><line style="stroke:#181818;stroke-width:1.0;" x1="572.353" x2="614.353" y1="533.7891" y2="533.7891"/><line style="stroke:#181818;stroke-width:1.0;" x1="614.353" x2="614.353" y1="533.7891" y2="546.7891"/><line style="stroke:#181818;stroke-width:1.0;" x1="573.353" x2="614.353" y1="546.7891" y2="546.7891"/><polygon fill="#181818" points="583.353,542.7891,573.353,546.7891,583.353,550.7891,579.353,546.7891" style="stroke:#181818;stroke-width:1.0;"/><text fill="#000000" font-family="sans-serif" font-size="13" lengthAdjust="spacing" textLength="244.2388" x="579.353" y="528.9326">checkStudentEligibility(student, internship)</text><path d="M30,561.7891 L90.1709,561.7891 L90.1709,570.1406 L80.1709,580.1406 L30,580.1406 L30,561.7891 " fill="#EEEEEE" style="stroke:#000000;stroke-width:1.5;"/><rect fill="none" height="473.4609" style="stroke:#000000;stroke-width:1.5;" width="1301.3267" x="30" y="561.7891"/><text fill="#000000" font-family="sans-serif" font-size="13" font-weight="bold" lengthAdjust="spacing" textLength="15.1709" x="45" y="576.2842">alt</text><text fill="#000000" font-family="sans-serif" font-size="11" font-weight="bold" lengthAdjust="spacing" textLength="101.4492" x="105.1709" y="575.208">[Student is eligible]</text><line style="stroke:#181818;stroke-width:1.0;" x1="572.353" x2="614.353" y1="602.4922" y2="602.4922"/><line style="stroke:#181818;stroke-width:1.0;" x1="614.353" x2="614.353" y1="602.4922" y2="615.4922"/><line style="stroke:#181818;stroke-width:1.0;" x1="573.353" x2="614.353" y1="615.4922" y2="615.4922"/><polygon fill="#181818" points="583.353,611.4922,573.353,615.4922,583.353,619.4922,579.353,615.4922" style="stroke:#181818;stroke-width:1.0;"/><text fill="#000000" font-family="sans-serif" font-size="13" lengthAdjust="spacing" textLength="134.418" x="579.353" y="597.6357">generateApplicationId()</text><line style="stroke:#181818;stroke-width:1.0;" x1="572.353" x2="614.353" y1="645.8438" y2="645.8438"/><line style="stroke:#181818;stroke-width:1.0;" x1="614.353" x2="614.353" y1="645.8438" y2="658.8438"/><line style="stroke:#181818;stroke-width:1.0;" x1="573.353" x2="614.353" y1="658.8438" y2="658.8438"/><polygon fill="#181818" points="583.353,654.8438,573.353,658.8438,583.353,662.8438,579.353,658.8438" style="stroke:#181818;stroke-width:1.0;"/><text fill="#000000" font-family="sans-serif" font-size="13" lengthAdjust="spacing" textLength="145.958" x="579.353" y="640.9873">createApplicationObject()</text><polygon fill="#181818" points="828.5918,685.1953,838.5918,689.1953,828.5918,693.1953,832.5918,689.1953" style="stroke:#181818;stroke-width:1.0;"/><line style="stroke:#181818;stroke-width:1.0;" x1="572.353" x2="834.5918" y1="689.1953" y2="689.1953"/><text fill="#000000" font-family="sans-serif" font-size="13" lengthAdjust="spacing" textLength="98.2744" x="579.353" y="684.3389">save(application)</text><polygon fill="#181818" points="1265.4717,715.5469,1275.4717,719.5469,1265.4717,723.5469,1269.4717,719.5469" style="stroke:#181818;stroke-width:1.0;"/><line style="stroke:#181818;stroke-width:1.0;" x1="850.5918" x2="1271.4717" y1="719.5469" y2="719.5469"/><text fill="#000000" font-family="sans-serif" font-size="13" lengthAdjust="spacing" textLength="93.2153" x="857.5918" y="714.6904">write application</text><polygon fill="#181818" points="583.353,745.8984,573.353,749.8984,583.353,753.8984,579.353,749.8984" style="stroke:#181818;stroke-width:1.0;"/><line style="stroke:#181818;stroke-width:1.0;stroke-dasharray:2.0,2.0;" x1="577.353" x2="844.5918" y1="749.8984" y2="749.8984"/><text fill="#000000" font-family="sans-serif" font-size="13" lengthAdjust="spacing" textLength="46.96" x="589.353" y="745.042">success</text><polygon fill="#181818" points="1130.2837,776.25,1140.2837,780.25,1130.2837,784.25,1134.2837,780.25" style="stroke:#181818;stroke-width:1.0;"/><line style="stroke:#181818;stroke-width:1.0;" x1="572.353" x2="1136.2837" y1="780.25" y2="780.25"/><text fill="#000000" font-family="sans-serif" font-size="13" lengthAdjust="spacing" textLength="135.8779" x="579.353" y="775.3936">updateStudent(student)</text><polygon fill="#181818" points="1265.4717,806.6016,1275.4717,810.6016,1265.4717,814.6016,1269.4717,810.6016" style="stroke:#181818;stroke-width:1.0;"/><line style="stroke:#181818;stroke-width:1.0;" x1="1152.2837" x2="1271.4717" y1="810.6016" y2="810.6016"/><text fill="#000000" font-family="sans-serif" font-size="13" lengthAdjust="spacing" textLength="86.0171" x="1159.2837" y="805.7451">update student</text><polygon fill="#181818" points="583.353,836.9531,573.353,840.9531,583.353,844.9531,579.353,840.9531" style="stroke:#181818;stroke-width:1.0;"/><line style="stroke:#181818;stroke-width:1.0;stroke-dasharray:2.0,2.0;" x1="577.353" x2="1146.2837" y1="840.9531" y2="840.9531"/><text fill="#000000" font-family="sans-serif" font-size="13" lengthAdjust="spacing" textLength="46.96" x="589.353" y="836.0967">success</text><polygon fill="#181818" points="318.0488,867.3047,308.0488,871.3047,318.0488,875.3047,314.0488,871.3047" style="stroke:#181818;stroke-width:1.0;"/><line style="stroke:#181818;stroke-width:1.0;stroke-dasharray:2.0,2.0;" x1="312.0488" x2="561.353" y1="871.3047" y2="871.3047"/><text fill="#000000" font-family="sans-serif" font-size="13" lengthAdjust="spacing" textLength="91.0381" x="324.0488" y="866.4482">ApplicationDTO</text><polygon fill="#181818" points="78.1309,914.0078,68.1309,918.0078,78.1309,922.0078,74.1309,918.0078" style="stroke:#181818;stroke-width:1.0;"/><line style="stroke:#181818;stroke-width:1.0;stroke-dasharray:2.0,2.0;" x1="72.1309" x2="296.0488" y1="918.0078" y2="918.0078"/><text fill="#000000" font-family="sans-serif" font-size="13" lengthAdjust="spacing" textLength="44.0845" x="84.1309" y="896.7998">200 OK</text><text fill="#000000" font-family="sans-serif" font-size="13" lengthAdjust="spacing" textLength="205.918" x="84.1309" y="913.1514">(Application submitted successfully)</text><line style="stroke:#000000;stroke-width:1.0;stroke-dasharray:2.0,2.0;" x1="30" x2="1331.3267" y1="927.0078" y2="927.0078"/><text fill="#000000" font-family="sans-serif" font-size="11" font-weight="bold" lengthAdjust="spacing" textLength="227.3691" x="35" y="938.4268">[Student not eligible (year-level restriction)]</text><polygon fill="#181818" points="318.0488,976.5469,308.0488,980.5469,318.0488,984.5469,314.0488,980.5469" style="stroke:#181818;stroke-width:1.0;"/><line style="stroke:#181818;stroke-width:1.0;stroke-dasharray:2.0,2.0;" x1="312.0488" x2="561.353" y1="980.5469" y2="980.5469"/><text fill="#000000" font-family="sans-serif" font-size="13" lengthAdjust="spacing" textLength="136.5762" x="324.0488" y="959.3389">BusinessRuleException</text><text fill="#000000" font-family="sans-serif" font-size="13" lengthAdjust="spacing" textLength="155.1748" x="324.0488" y="975.6904">("Not eligible for this level")</text><polygon fill="#181818" points="78.1309,1023.25,68.1309,1027.25,78.1309,1031.25,74.1309,1027.25" style="stroke:#181818;stroke-width:1.0;"/><line style="stroke:#181818;stroke-width:1.0;stroke-dasharray:2.0,2.0;" x1="72.1309" x2="296.0488" y1="1027.25" y2="1027.25"/><text fill="#000000" font-family="sans-serif" font-size="13" lengthAdjust="spacing" textLength="100.4644" x="84.1309" y="1006.042">400 Bad Request</text><text fill="#000000" font-family="sans-serif" font-size="13" lengthAdjust="spacing" textLength="127.1436" x="84.1309" y="1022.3936">(Year-level restriction)</text><line style="stroke:#000000;stroke-width:1.0;stroke-dasharray:2.0,2.0;" x1="20" x2="1341.3267" y1="1043.25" y2="1043.25"/><text fill="#000000" font-family="sans-serif" font-size="11" font-weight="bold" lengthAdjust="spacing" textLength="223.0669" x="25" y="1054.6689">[Internship not accepting (closed or filled)]</text><polygon fill="#181818" points="318.0488,1092.7891,308.0488,1096.7891,318.0488,1100.7891,314.0488,1096.7891" style="stroke:#181818;stroke-width:1.0;"/><line style="stroke:#181818;stroke-width:1.0;stroke-dasharray:2.0,2.0;" x1="312.0488" x2="561.353" y1="1096.7891" y2="1096.7891"/><text fill="#000000" font-family="sans-serif" font-size="13" lengthAdjust="spacing" textLength="136.5762" x="324.0488" y="1075.5811">BusinessRuleException</text><text fill="#000000" font-family="sans-serif" font-size="13" lengthAdjust="spacing" textLength="228.1919" x="324.0488" y="1091.9326">("Internship not accepting applications")</text><polygon fill="#181818" points="78.1309,1139.4922,68.1309,1143.4922,78.1309,1147.4922,74.1309,1143.4922" style="stroke:#181818;stroke-width:1.0;"/><line style="stroke:#181818;stroke-width:1.0;stroke-dasharray:2.0,2.0;" x1="72.1309" x2="296.0488" y1="1143.4922" y2="1143.4922"/><text fill="#000000" font-family="sans-serif" font-size="13" lengthAdjust="spacing" textLength="100.4644" x="84.1309" y="1122.2842">400 Bad Request</text><text fill="#000000" font-family="sans-serif" font-size="13" lengthAdjust="spacing" textLength="106.939" x="84.1309" y="1138.6357">(Internship closed)</text><line style="stroke:#000000;stroke-width:1.0;stroke-dasharray:2.0,2.0;" x1="10" x2="1351.3267" y1="1159.4922" y2="1159.4922"/><text fill="#000000" font-family="sans-serif" font-size="11" font-weight="bold" lengthAdjust="spacing" textLength="319.6553" x="15" y="1170.9111">[Student cannot submit (max applications or has placement)]</text><polygon fill="#181818" points="318.0488,1209.0313,308.0488,1213.0313,318.0488,1217.0313,314.0488,1213.0313" style="stroke:#181818;stroke-width:1.0;"/><line style="stroke:#181818;stroke-width:1.0;stroke-dasharray:2.0,2.0;" x1="312.0488" x2="561.353" y1="1213.0313" y2="1213.0313"/><text fill="#000000" font-family="sans-serif" font-size="13" lengthAdjust="spacing" textLength="136.5762" x="324.0488" y="1191.8232">BusinessRuleException</text><text fill="#000000" font-family="sans-serif" font-size="13" lengthAdjust="spacing" textLength="167.4766" x="324.0488" y="1208.1748">("Cannot submit application")</text><polygon fill="#181818" points="78.1309,1255.7344,68.1309,1259.7344,78.1309,1263.7344,74.1309,1259.7344" style="stroke:#181818;stroke-width:1.0;"/><line style="stroke:#181818;stroke-width:1.0;stroke-dasharray:2.0,2.0;" x1="72.1309" x2="296.0488" y1="1259.7344" y2="1259.7344"/><text fill="#000000" font-family="sans-serif" font-size="13" lengthAdjust="spacing" textLength="100.4644" x="84.1309" y="1238.5264">400 Bad Request</text><text fill="#000000" font-family="sans-serif" font-size="13" lengthAdjust="spacing" textLength="156.0762" x="84.1309" y="1254.8779">(Max applications reached)</text><path d="M572,1279.7344 L572,1387.7344 L766,1387.7344 L766,1289.7344 L756,1279.7344 L572,1279.7344 " fill="#FEFFDD" style="stroke:#181818;stroke-width:0.5;"/><path d="M756,1279.7344 L756,1289.7344 L766,1289.7344 L756,1279.7344 " fill="#FEFFDD" style="stroke:#181818;stroke-width:0.5;"/><text fill="#000000" font-family="sans-serif" font-size="13" lengthAdjust="spacing" textLength="148.1289" x="578" y="1298.2295">Business Rules Checked:</text><text fill="#000000" font-family="sans-serif" font-size="13" lengthAdjust="spacing" textLength="122.1226" x="578" y="1314.5811">1. Max 3 applications</text><text fill="#000000" font-family="sans-serif" font-size="13" lengthAdjust="spacing" textLength="151.0361" x="578" y="1330.9326">2. No placement accepted</text><text fill="#000000" font-family="sans-serif" font-size="13" lengthAdjust="spacing" textLength="130.8062" x="578" y="1347.2842">3. Internship accepting</text><text fill="#000000" font-family="sans-serif" font-size="13" lengthAdjust="spacing" textLength="125.7217" x="578" y="1363.6357">4. Year-level eligibility</text><text fill="#000000" font-family="sans-serif" font-size="13" lengthAdjust="spacing" textLength="173.3989" x="578" y="1379.9873">5. Major matching (if required)</text><path d="M1203,1397.8438 L1203,1456.8438 L1350,1456.8438 L1350,1407.8438 L1340,1397.8438 L1203,1397.8438 " fill="#FEFFDD" style="stroke:#181818;stroke-width:0.5;"/><path d="M1340,1397.8438 L1340,1407.8438 L1350,1407.8438 L1340,1397.8438 " fill="#FEFFDD" style="stroke:#181818;stroke-width:0.5;"/><text fill="#000000" font-family="sans-serif" font-size="13" lengthAdjust="spacing" textLength="99.7217" x="1209" y="1416.3389">All data persisted</text><text fill="#000000" font-family="sans-serif" font-size="13" lengthAdjust="spacing" textLength="86.6963" x="1209" y="1432.6904">to CSV files for</text><text fill="#000000" font-family="sans-serif" font-size="13" lengthAdjust="spacing" textLength="126.4834" x="1209" y="1449.042">non-database storage</text><!--SRC=[dLPDRziu4BthLmnyYGriWZP9Uz2XGEejYg3efeZRBXReXP76DbkQKabAhVzzXn8b3XqhzTOdcPoFznw7mpc3rVBosRDBU6kgfeQNS0wtsg7HTYjh-A14WJlK3juBBJRzvsfl7UwoCrYvflGBDtMjP26Sh3JyMvblQrNzo38ddS8JWr7MfuETmGTXd2naBRIpcIXSPKONOS7sdraThM0MzfULTgPI2itCcnRZtwFMApIjBB0pjVrtQiS0tcDTMKbGzfsvg6k_aff70GwifNQFhGE80rCRLxDIEF4WBC9ikVfC4bI6fEo9sTOBjSBl3Mf27RpW_1NZd8Dj7dRICHPpEKAyBHTUMzaAXroeB7xxS46N70g3PCbZXQItvLym4NOGjIiWhE5v3f-5acMt5uuns7Iv8lSSDkY2GZ4H3yrqOj-T0hRDWT2MWn5u8LChpYoaoKey6Zr1EFYqWSO0SP5bGhcnJ0kXW_Y-KWR5Cg1VaEAIIH7LwonOFidKYDLrS8hUPqG-b9fVbCSqYRwzB8aXfnZptTLrPLoZfTjtvamedkuGV2oTBHRVOhYRLaWb7gIYUFD5TFK2iXuYwPOL1TPEwWrNqNR6JCgh79O-0w2I6zd77MqcyOIZUXDzXZhZvRmO0uqV_9m9OvzKuRZFa5qJikxQFAg2f-1jKAD9xzfjEL_yrk_H3Rrx-8g5E_0yXlC5NGBHdeGoD3xgBUGmPmvfbh50XaQPRFPhOrt-CF89YKPhpjKsL1hM9eQiB8zbFKRyPGwVQjwEw8uKbIadjUOTggbv1mXR4pBmXfB4FjAwcWJHjFd_q6Cg_N6U1wy8gwY_FzubBlojYFBaG6C6tBtxekVyYUyReiDoGBjkbDfFL2SgUlU6QwOhDzupcEzHc7E5BIewBUkCB1xNtnINrusLcbBVDmhV_EowIwK9v-mVdc9D4uVRqkNkiimM9t6-9iwlgS7U-qVPEWhwts-0eYxJzjAHPYtGyuuzS5weof9w16ujAN-voFwOxcGItcWPyTD9iyWztZx8m3LB3fRUIPy-F9NpdVYP0F1KjpJkrCCukSZ-YEqoISCo18Qditj_Y91wBZqdHD8JJ4Q8CFkm9JvbdG5L7DgCS24OkTawgDQZ4unSm9En_GE7PKuxpo_0exWwV1ClBoXab2gSANhPhovuLOs7JJlN5y2gD7r0N_X4N-a8Ti8Lswu2vPe8Vs-a2OnzyT1urv6eMfBF3wO0DqfrmmNKQAoqFGXNWHzZgNI93zqmMjALFX-7NDlFjp7iBm00]--></g></svg>